<svg id="Layer_1" data-name="Layer 1" xmlns="http://www.w3.org/2000/svg" viewBox="0 0 2493 504.68"><defs><style>.cls-1{fill:#93cfa2;}.cls-2{fill:#292929;}</style></defs><title>_</title><polygon class="cls-1" points="307.22 455.3 307.22 504.67 0 504.67 0 0 49.33 0 49.33 455.3 307.22 455.3"/><polygon class="cls-2" points="501.07 77.47 501.07 153.71 406.08 224.33 354.74 262.42 303.43 224.33 153.62 113 153.62 392.73 104.25 392.73 104.25 0.09 153.62 36.76 354.74 186.18 501.07 77.47"/><polygon class="cls-1" points="605.33 0 605.33 76.29 555.96 112.96 555.96 36.71 605.33 0"/><polygon class="cls-2" points="605.33 144.93 605.33 504.68 555.96 504.68 555.96 181.6 605.33 144.93"/><polygon class="cls-2" points="894.84 72.04 943.22 72.04 943.22 388.84 1124.04 388.84 1124.04 435.19 894.84 435.19 894.84 72.04"/><rect class="cls-2" x="1419.93" y="72.04" width="48.38" height="363.15"/><polygon class="cls-2" points="1764.71 69.49 1955.7 346.57 2148.23 69.49 2148.23 435.19 2099.85 435.19 2099.85 208.53 1956.21 417.87 1813.09 208.53 1813.09 435.19 1764.71 435.19 1764.71 69.49"/><rect class="cls-2" x="2444.61" y="72.04" width="48.38" height="363.15"/></svg>