<svg id="Layer_1" data-name="Layer 1" xmlns="http://www.w3.org/2000/svg" viewBox="0 0 1939.42 436.25"><defs><style>.cls-1{fill:#f6efef;}</style></defs><title>_</title><polygon class="cls-1" points="265.57 393.57 265.57 436.25 0 436.25 0 0 42.64 0 42.64 393.57 265.57 393.57"/><polygon class="cls-1" points="433.14 66.97 433.14 132.88 351.04 193.91 306.66 226.85 262.29 193.91 132.81 97.68 132.81 339.49 90.13 339.49 90.13 0.07 132.81 31.77 306.66 160.94 433.14 66.97"/><polygon class="cls-1" points="523.27 0 523.27 65.94 480.59 97.64 480.59 31.73 523.27 0"/><polygon class="cls-1" points="523.27 125.28 523.27 436.25 480.59 436.25 480.59 156.98 523.27 125.28"/><polygon class="cls-1" points="739.34 61.93 775.67 61.93 775.67 299.82 911.44 299.82 911.44 334.63 739.34 334.63 739.34 61.93"/><rect class="cls-1" x="1133.63" y="61.93" width="36.33" height="272.69"/><polygon class="cls-1" points="1392.54 60.02 1535.96 268.08 1680.53 60.02 1680.53 334.63 1644.19 334.63 1644.19 164.43 1536.34 321.63 1428.87 164.43 1428.87 334.63 1392.54 334.63 1392.54 60.02"/><rect class="cls-1" x="1903.09" y="61.93" width="36.33" height="272.69"/><polygon class="cls-1" points="739.34 383.91 744.88 383.91 744.88 429.21 770.98 429.21 770.98 434.61 739.34 434.61 739.34 383.91"/><rect class="cls-1" x="791.68" y="383.91" width="5.54" height="50.71"/><path class="cls-1" d="M844.53,407h26v1.28c0,16.07-9.75,27.81-26,27.81-15.58,0-26.6-11.31-26.6-26.81,0-15.65,11.09-26.88,26.74-26.88,12,0,21.55,5.9,25,17.92H864c-2.64-8.9-10.75-12.88-19.42-12.88-12.38,0-21.13,9.18-21.13,21.69s8.54,21.91,21.34,21.91c12,0,19.56-8.32,20.34-19.42H844.53Z"/><polygon class="cls-1" points="890.12 383.91 895.74 383.91 895.74 406.95 923.9 406.95 923.9 383.91 929.52 383.91 929.52 434.61 923.9 434.61 923.9 411.86 895.74 411.86 895.74 434.61 890.12 434.61 890.12 383.91"/><polygon class="cls-1" points="965.37 388.96 950.15 388.96 950.15 383.91 986.13 383.91 986.13 388.96 970.99 388.96 970.99 434.62 965.37 434.62 965.37 388.96"/><rect class="cls-1" x="1006.83" y="383.91" width="5.55" height="50.71"/><polygon class="cls-1" points="1033.08 383.41 1070.63 422.95 1070.63 383.91 1076.25 383.91 1076.25 435.11 1038.84 396.14 1038.63 434.62 1033.08 434.62 1033.08 383.41"/><path class="cls-1" d="M1123.55,407h26v1.28c0,16.07-9.75,27.81-26,27.81-15.58,0-26.6-11.31-26.6-26.81,0-15.65,11.1-26.88,26.74-26.88,12,0,21.55,5.9,25,17.92H1143c-2.64-8.9-10.75-12.88-19.42-12.88-12.37,0-21.12,9.18-21.12,21.69s8.53,21.91,21.33,21.91c11.94,0,19.56-8.32,20.34-19.42h-20.55Z"/><polygon class="cls-1" points="1205.84 383.55 1232.37 423.74 1259.04 383.55 1259.04 434.62 1253.42 434.62 1253.42 400.12 1232.44 432.2 1211.46 400.12 1211.46 434.62 1205.84 434.62 1205.84 383.55"/><path class="cls-1" d="M1279.81,434.61l25.75-51.27,25.81,51.27h-6.26l-4.83-9.74h-29.44l-4.77,9.74ZM1293,420.46h25.17l-12.58-25.1Z"/><path class="cls-1" d="M1352,384l8-.07h.43c15.5,0,25.1,10.17,25.1,25.31s-9.46,25.18-25.53,25.39l-8,.07Zm8.54,45.59c11.94,0,19.55-8.26,19.55-20.35S1372.48,389,1360.54,389h-2.84v40.61Z"/><polygon class="cls-1" points="1406.2 383.91 1440.12 383.91 1440.12 388.96 1411.75 388.96 1411.75 406.95 1437.28 406.95 1437.28 411.86 1411.75 411.86 1411.75 429.56 1440.84 429.56 1440.84 434.61 1406.2 434.61 1406.2 383.91"/><polygon class="cls-1" points="1497.17 383.91 1502.72 383.91 1502.72 429.21 1528.81 429.21 1528.81 434.61 1497.17 434.61 1497.17 383.91"/><rect class="cls-1" x="1549.51" y="383.91" width="5.55" height="50.71"/><polygon class="cls-1" points="1575.83 383.55 1602.36 423.74 1629.03 383.55 1629.03 434.62 1623.41 434.62 1623.41 400.12 1602.43 432.2 1581.45 400.12 1581.45 434.62 1575.83 434.62 1575.83 383.55"/><rect class="cls-1" x="1649.87" y="383.91" width="5.55" height="50.71"/><polygon class="cls-1" points="1691.34 388.96 1676.12 388.96 1676.12 383.91 1712.1 383.91 1712.1 388.96 1696.95 388.96 1696.95 434.62 1691.34 434.62 1691.34 388.96"/><polygon class="cls-1" points="1732.73 383.91 1738.28 383.91 1738.28 429.21 1764.38 429.21 1764.38 434.61 1732.73 434.61 1732.73 383.91"/><polygon class="cls-1" points="1785.01 383.91 1818.93 383.91 1818.93 388.96 1790.56 388.96 1790.56 406.95 1816.09 406.95 1816.09 411.86 1790.56 411.86 1790.56 429.56 1819.64 429.56 1819.64 434.61 1785.01 434.61 1785.01 383.91"/><path class="cls-1" d="M1843.76,421.53c.56,5.76,7.18,9.82,13.72,9.82s13.37-2.5,13.37-10c0-15.07-32.78-4.47-32.78-24.24,0-9.89,9-14.79,18.91-14.79,10.6,0,18.14,6.18,19.28,14.64h-5.76c-.93-6-6.76-10-13.3-10s-13.44,3.14-13.44,9.53c0,15.22,32.78,4.7,32.78,24,0,11-8.89,15.72-18.85,15.72-11,0-18.27-5.9-19.77-14.72Z"/><path class="cls-1" d="M1903.15,421.53c.56,5.76,7.18,9.82,13.72,9.82s13.37-2.5,13.37-10c0-15.07-32.78-4.47-32.78-24.24,0-9.89,9-14.79,18.91-14.79,10.6,0,18.14,6.18,19.27,14.64h-5.75c-.93-6-6.76-10-13.31-10s-13.43,3.14-13.43,9.53c0,15.22,32.78,4.7,32.78,24,0,11-8.89,15.72-18.85,15.72-10.95,0-18.27-5.9-19.77-14.72Z"/></svg>