<svg id="Layer_1" data-name="Layer 1" xmlns="http://www.w3.org/2000/svg" viewBox="0 0 2430.17 776.47"><defs><style>.cls-1{fill:#93cfa2;}.cls-2{fill:#f6efef;}</style></defs><title>_</title><polygon class="cls-1" points="1220.18 509.61 1220.18 564.87 876.31 564.87 876.31 0 931.54 0 931.54 509.61 1220.18 509.61"/><polygon class="cls-2" points="1437.16 86.71 1437.16 172.04 1330.85 251.08 1273.38 293.72 1215.93 251.08 1048.27 126.48 1048.27 439.57 993.01 439.57 993.01 0.1 1048.27 41.13 1273.38 208.38 1437.16 86.71"/><polygon class="cls-1" points="1553.86 0 1553.86 85.38 1498.6 126.43 1498.6 41.1 1553.86 0"/><polygon class="cls-2" points="1553.86 162.22 1553.86 564.87 1498.6 564.87 1498.6 203.27 1553.86 162.22"/><polygon class="cls-2" points="0 670.18 11.27 670.18 11.27 762.18 64.27 762.18 64.27 773.16 0 773.16 0 670.18"/><rect class="cls-2" x="106.32" y="670.17" width="11.27" height="102.98"/><path class="cls-2" d="M213.63,717.12h52.72v2.59c0,32.65-19.78,56.48-52.72,56.48-31.64,0-54-23-54-54.45,0-31.78,22.53-54.6,54.3-54.6,24.41,0,43.77,12,50.7,36.4H253.06c-5.34-18.06-21.81-26.15-39.43-26.15-25.12,0-42.89,18.63-42.89,44.06s17.33,44.48,43.32,44.48c24.27,0,39.72-16.89,41.31-39.42H213.63Z"/><polygon class="cls-2" points="306.23 670.18 317.64 670.18 317.64 716.97 374.83 716.97 374.83 670.18 386.24 670.18 386.24 773.16 374.83 773.16 374.83 726.94 317.64 726.94 317.64 773.16 306.23 773.16 306.23 670.18"/><polygon class="cls-2" points="459.05 680.43 428.15 680.43 428.15 670.17 501.22 670.17 501.22 680.43 470.46 680.43 470.46 773.15 459.05 773.15 459.05 680.43"/><rect class="cls-2" x="543.27" y="670.17" width="11.27" height="102.98"/><polygon class="cls-2" points="596.57 669.16 672.82 749.47 672.82 670.17 684.23 670.17 684.23 774.16 608.26 695.02 607.83 773.15 596.57 773.15 596.57 669.16"/><path class="cls-2" d="M780.3,717.12H833v2.59c0,32.65-19.78,56.48-52.72,56.48-31.64,0-54-23-54-54.45,0-31.78,22.51-54.6,54.3-54.6,24.4,0,43.77,12,50.7,36.4H819.73c-5.34-18.06-21.81-26.15-39.43-26.15-25.13,0-42.89,18.63-42.89,44.06s17.33,44.48,43.32,44.48c24.26,0,39.72-16.89,41.31-39.42H780.3Z"/><polygon class="cls-2" points="947.43 669.46 1001.3 751.06 1055.47 669.46 1055.47 773.16 1044.07 773.16 1044.07 703.11 1001.45 768.25 958.85 703.11 958.85 773.16 947.43 773.16 947.43 669.46"/><path class="cls-2" d="M1097.65,773.16,1150,669l52.43,104.14h-12.72l-9.81-19.78H1120l-9.67,19.78Zm26.73-28.75h51.13l-25.56-51Z"/><path class="cls-2" d="M1244.27,670.32l16.33-.14h.86c31.5,0,51,20.64,51,51.42,0,30.47-19.21,51.13-51.85,51.56l-16.33.15Zm17.33,92.58c24.27,0,39.73-16.75,39.73-41.3,0-24.26-15.46-41.16-39.73-41.16h-5.77V762.9Z"/><polygon class="cls-2" points="1354.34 670.18 1423.24 670.18 1423.24 680.44 1365.61 680.44 1365.61 716.97 1417.46 716.97 1417.46 726.94 1365.61 726.94 1365.61 762.9 1424.69 762.9 1424.69 773.16 1354.34 773.16 1354.34 670.18"/><polygon class="cls-2" points="1539.09 670.18 1550.35 670.18 1550.35 762.18 1603.36 762.18 1603.36 773.16 1539.09 773.16 1539.09 670.18"/><rect class="cls-2" x="1645.4" y="670.17" width="11.27" height="102.98"/><polygon class="cls-2" points="1698.85 669.46 1752.71 751.06 1806.89 669.46 1806.89 773.16 1795.48 773.16 1795.48 703.11 1752.86 768.25 1710.26 703.11 1710.26 773.16 1698.85 773.16 1698.85 669.46"/><rect class="cls-2" x="1849.22" y="670.17" width="11.27" height="102.98"/><polygon class="cls-2" points="1933.43 680.43 1902.53 680.43 1902.53 670.17 1975.6 670.17 1975.6 680.43 1944.84 680.43 1944.84 773.15 1933.43 773.15 1933.43 680.43"/><polygon class="cls-2" points="2017.5 670.18 2028.77 670.18 2028.77 762.18 2081.77 762.18 2081.77 773.16 2017.5 773.16 2017.5 670.18"/><polygon class="cls-2" points="2123.67 670.18 2192.56 670.18 2192.56 680.44 2134.93 680.44 2134.93 716.97 2186.78 716.97 2186.78 726.94 2134.93 726.94 2134.93 762.9 2194.02 762.9 2194.02 773.16 2123.67 773.16 2123.67 670.18"/><path class="cls-2" d="M2243,746.58c1.15,11.7,14.58,19.94,27.88,19.94,13.14,0,27.16-5.06,27.16-20.23,0-30.62-66.59-9.11-66.59-49.24,0-20.09,18.34-30.06,38.42-30.06,21.51,0,36.83,12.58,39.13,29.75H2297.3c-1.89-12.27-13.73-20.21-27-20.21s-27.3,6.35-27.3,19.35c0,30.92,66.58,9.54,66.58,48.68,0,22.39-18,31.91-38.27,31.91-22.24,0-37.13-12-40.15-29.89Z"/><path class="cls-2" d="M2363.6,746.58c1.15,11.7,14.58,19.94,27.87,19.94s27.16-5.06,27.16-20.23c0-30.62-66.59-9.11-66.59-49.24,0-20.09,18.34-30.06,38.43-30.06,21.51,0,36.82,12.58,39.13,29.75h-11.7c-1.88-12.27-13.72-20.21-27-20.21s-27.3,6.35-27.3,19.35c0,30.92,66.57,9.54,66.57,48.68,0,22.39-18.05,31.91-38.26,31.91-22.25,0-37.13-12-40.16-29.89Z"/></svg>