<svg id="Layer_1" data-name="Layer 1" xmlns="http://www.w3.org/2000/svg" viewBox="0 0 1710.12 1022.65"><defs><style>.cls-1{fill:#93cfa2;}.cls-2{fill:#292929;}</style></defs><title>_</title><polygon class="cls-1" points="860.1 503.47 860.1 558.06 520.38 558.06 520.38 0.01 574.92 0.01 574.92 503.47 860.1 503.47"/><polygon class="cls-2" points="1074.46 85.67 1074.46 169.97 969.43 248.05 912.66 290.18 855.89 248.05 690.25 124.94 690.25 434.29 635.66 434.29 635.66 0.1 690.25 40.64 912.66 205.88 1074.46 85.67"/><polygon class="cls-1" points="1189.75 0 1189.75 84.36 1135.16 124.9 1135.16 40.6 1189.75 0"/><polygon class="cls-2" points="1189.75 160.26 1189.75 558.07 1135.16 558.07 1135.16 200.83 1189.75 160.26"/><polygon class="cls-2" points="0 682.09 13.52 682.09 13.52 792.52 77.15 792.52 77.15 805.71 0 805.71 0 682.09"/><rect class="cls-2" x="127.61" y="682.09" width="13.52" height="123.62"/><path class="cls-2" d="M256.43,738.44h63.28v3.11c0,39.19-23.74,67.8-63.28,67.8-38,0-64.84-27.57-64.84-65.37,0-38.14,27-65.53,65.19-65.53,29.31,0,52.54,14.4,60.85,43.69H303.76c-6.42-21.66-26.18-31.38-47.33-31.38-30.17,0-51.48,22.36-51.48,52.87,0,30.68,20.8,53.41,52,53.41,29.15,0,47.7-20.29,49.6-47.33H256.43Z"/><polygon class="cls-2" points="367.58 682.09 381.28 682.09 381.28 738.26 449.92 738.26 449.92 682.09 463.63 682.09 463.63 805.71 449.92 805.71 449.92 750.23 381.28 750.23 381.28 805.71 367.58 805.71 367.58 682.09"/><polygon class="cls-2" points="551.02 694.4 513.92 694.4 513.92 682.09 601.64 682.09 601.64 694.4 564.72 694.4 564.72 805.71 551.02 805.71 551.02 694.4"/><rect class="cls-2" x="652.11" y="682.09" width="13.52" height="123.62"/><polygon class="cls-2" points="716.09 680.87 807.63 777.27 807.63 682.1 821.32 682.1 821.32 806.92 730.14 711.9 729.61 805.7 716.09 805.7 716.09 680.87"/><path class="cls-2" d="M936.63,738.44h63.28v3.11c0,39.19-23.74,67.8-63.28,67.8-38,0-64.83-27.57-64.83-65.37,0-38.14,27-65.53,65.18-65.53,29.29,0,52.54,14.4,60.85,43.69H984c-6.42-21.66-26.18-31.38-47.33-31.38-30.17,0-51.48,22.36-51.48,52.87,0,30.68,20.8,53.41,52,53.41,29.12,0,47.69-20.29,49.59-47.33H936.63Z"/><polygon class="cls-2" points="1137.25 681.23 1201.92 779.18 1266.94 681.23 1266.94 805.71 1253.24 805.71 1253.24 721.62 1202.09 799.82 1150.95 721.62 1150.95 805.71 1137.25 805.71 1137.25 681.23"/><path class="cls-2" d="M1317.57,805.71l62.77-125,62.92,125H1428L1416.22,782h-71.77l-11.62,23.75Zm32.08-34.5H1411L1380.34,710Z"/><path class="cls-2" d="M1493.57,682.27l19.59-.18h1c37.78,0,61.2,24.79,61.2,61.73,0,36.57-23.07,61.36-62.24,61.89l-19.59.16Zm20.8,111.13c29.12,0,47.67-20.11,47.67-49.58,0-29.13-18.55-49.42-47.67-49.42h-6.94v99Z"/><polygon class="cls-2" points="1625.69 682.09 1708.38 682.09 1708.38 694.41 1639.2 694.41 1639.2 738.26 1701.44 738.26 1701.44 750.23 1639.2 750.23 1639.2 793.4 1710.12 793.4 1710.12 805.71 1625.69 805.71 1625.69 682.09"/><polygon class="cls-2" points="320.25 895.04 333.77 895.04 333.77 1005.49 397.4 1005.49 397.4 1018.66 320.25 1018.66 320.25 895.04"/><rect class="cls-2" x="447.86" y="895.04" width="13.52" height="123.62"/><polygon class="cls-2" points="512.02 894.18 576.69 992.13 641.71 894.18 641.71 1018.66 628.01 1018.66 628.01 934.57 576.86 1012.77 525.72 934.57 525.72 1018.66 512.02 1018.66 512.02 894.18"/><rect class="cls-2" x="692.52" y="895.04" width="13.52" height="123.62"/><polygon class="cls-2" points="793.6 907.35 756.5 907.35 756.5 895.04 844.22 895.04 844.22 907.35 807.3 907.35 807.3 1018.66 793.6 1018.66 793.6 907.35"/><polygon class="cls-2" points="894.51 895.04 908.03 895.04 908.03 1005.49 971.66 1005.49 971.66 1018.66 894.51 1018.66 894.51 895.04"/><polygon class="cls-2" points="1021.95 895.04 1104.64 895.04 1104.64 907.36 1035.47 907.36 1035.47 951.21 1097.71 951.21 1097.71 963.17 1035.47 963.17 1035.47 1006.35 1106.38 1006.35 1106.38 1018.66 1021.95 1018.66 1021.95 895.04"/><path class="cls-2" d="M1165.17,986.75c1.39,14,17.51,23.93,33.46,23.93,15.77,0,32.6-6.07,32.6-24.27,0-36.76-79.93-10.93-79.93-59.12,0-24.11,22-36,46.12-36,25.82,0,44.2,15.07,47,35.71h-14.05c-2.26-14.75-16.47-24.28-32.42-24.28-15.77,0-32.77,7.63-32.77,23.23,0,37.11,79.91,11.44,79.91,58.42,0,26.88-21.66,38.33-45.94,38.33-26.69,0-44.54-14.4-48.18-35.9Z"/><path class="cls-2" d="M1310,986.75c1.39,14,17.51,23.93,33.46,23.93,15.77,0,32.6-6.07,32.6-24.27,0-36.76-79.93-10.93-79.93-59.12,0-24.11,22-36,46.12-36,25.82,0,44.21,15.07,47,35.71h-14c-2.25-14.75-16.47-24.28-32.42-24.28-15.77,0-32.77,7.63-32.77,23.23,0,37.11,79.91,11.44,79.91,58.42,0,26.88-21.66,38.33-45.94,38.33-26.69,0-44.54-14.4-48.18-35.9Z"/></svg>