<svg id="Layer_1" data-name="Layer 1" xmlns="http://www.w3.org/2000/svg" xmlns:xlink="http://www.w3.org/1999/xlink" viewBox="0 0 1080 1080"><defs><style>.cls-1{fill:none;}.cls-2{clip-path:url(#clip-path);}.cls-3{fill:#93cfa2;}</style><clipPath id="clip-path"><rect class="cls-1" x="-1100" width="1080" height="1080"/></clipPath></defs><title>LIMI_Pattern</title><g class="cls-2"><polygon class="cls-3" points="219.94 610.91 299.79 690.76 299.79 673.98 228.33 602.52 219.94 610.91"/><polygon class="cls-3" points="239.57 591.29 299.79 651.51 299.79 634.73 247.96 582.9 239.57 591.29"/><polygon class="cls-3" points="189.65 641.2 181.26 649.6 252.72 721.05 252.72 721.05 181.26 792.51 189.65 800.9 269.5 721.05 269.5 721.05 269.5 721.05 189.65 641.2"/><polygon class="cls-3" points="200.6 630.26 291.4 721.05 291.4 721.05 200.6 811.85 208.99 820.24 299.79 729.45 299.79 721.05 299.79 712.66 208.99 621.86 200.6 630.26"/><polygon class="cls-3" points="228.33 476.73 299.79 405.27 299.79 388.49 219.94 468.34 228.33 476.73"/><polygon class="cls-3" points="247.96 496.36 299.79 444.53 299.79 427.74 239.57 487.96 247.96 496.36"/><polygon class="cls-3" points="291.23 539.63 258.62 572.23 299.79 613.4 299.79 596.62 275.41 572.23 299.62 548.02 299.79 548.19 299.79 547.85 299.79 531.4 299.79 531.07 299.62 531.24 275.41 507.02 299.79 482.63 299.79 465.85 258.62 507.02 291.23 539.63"/><polygon class="cls-3" points="-13.32 429.49 66.53 509.34 146.38 429.49 137.99 421.1 66.53 492.55 -4.93 421.1 -13.32 429.49"/><polygon class="cls-3" points="6.31 409.86 66.53 470.09 126.75 409.86 118.36 401.47 66.53 453.3 14.7 401.47 6.31 409.86"/><path class="cls-3" d="M25.36,390.81,66.53,432l41.17-41.17L75.09,358.2l32.61-32.6L66.53,284.43,25.36,325.6,58,358.2ZM42.15,325.6l24.38-24.39L90.91,325.6,66.7,349.81l-.17-.17-.17.17Zm48.76,65.21L66.53,415.19,42.15,390.81l24.21-24.22.17.17.17-.17Z"/><polygon class="cls-3" points="36.24 539.63 -43.61 459.78 -52 468.17 19.46 539.63 -52 611.09 -43.61 619.48 36.24 539.63"/><polygon class="cls-3" points="165.72 630.42 74.92 539.63 165.72 448.83 157.33 440.44 66.53 531.23 -24.27 440.44 -32.66 448.83 58.14 539.63 -32.66 630.42 -24.27 638.82 66.53 548.02 157.33 638.82 165.72 630.42"/><polygon class="cls-3" points="113.6 539.63 185.06 468.17 176.67 459.78 96.82 539.63 176.67 619.48 185.06 611.09 113.6 539.63"/><polygon class="cls-3" points="136.07 539.63 196.29 599.85 204.69 591.46 152.86 539.63 204.69 487.8 196.29 479.4 136.07 539.63"/><path class="cls-3" d="M256.52,539.63l-41.17-41.17-41.17,41.17,41.17,41.16Zm-41.17-24.39,24.38,24.39L215.35,564,191,539.63Z"/><polygon class="cls-3" points="146.38 649.76 66.53 569.91 -13.32 649.76 -4.93 658.16 66.53 586.7 137.99 658.16 146.38 649.76"/><polygon class="cls-3" points="126.75 669.39 66.53 609.17 6.31 669.39 14.7 677.78 66.53 625.95 118.36 677.78 126.75 669.39"/><path class="cls-3" d="M66.53,647.28,25.36,688.45,58,721.05,25.36,753.66l41.17,41.17,41.17-41.17L75.09,721.05l32.61-32.6ZM90.91,753.66,66.53,778.05,42.15,753.66l24.21-24.21.17.16.17-.16Zm-24.21-41-.17-.17-.17.17L42.15,688.45l24.38-24.39,24.38,24.39Z"/><polygon class="cls-3" points="219.94 973.76 299.79 1053.62 299.79 1036.83 228.33 965.37 219.94 973.76"/><polygon class="cls-3" points="239.57 954.14 299.79 1014.36 299.79 997.58 247.96 945.75 239.57 954.14"/><polygon class="cls-3" points="181.26 1012.45 252.72 1083.9 252.72 1083.9 269.5 1083.9 269.5 1083.9 189.65 1004.05 181.26 1012.45"/><polygon class="cls-3" points="161.63 1032.08 213.47 1083.9 213.47 1083.9 230.25 1083.9 230.25 1083.9 170.03 1023.68 161.63 1032.08"/><polygon class="cls-3" points="109.8 1083.9 126.59 1083.9 150.97 1059.52 175.36 1083.9 192.14 1083.9 150.97 1042.73 109.8 1083.9"/><polygon class="cls-3" points="200.6 993.11 291.4 1083.9 291.4 1083.9 299.79 1083.9 299.79 1075.51 208.99 984.71 200.6 993.11"/><polygon class="cls-3" points="-59.08 1083.9 -42.3 1083.9 -17.91 1059.52 6.47 1083.9 23.26 1083.9 -17.91 1042.73 -59.08 1083.9"/><polygon class="cls-3" points="230.25 721.05 230.25 721.05 170.03 660.83 161.63 669.23 213.47 721.05 213.47 721.05 161.63 772.88 170.03 781.27 230.25 721.05"/><path class="cls-3" d="M192.14,721.05,151,679.89,109.8,721.05,151,762.22ZM151,696.67l24.39,24.38L151,745.44l-24.38-24.39Z"/><polygon class="cls-3" points="228.33 839.58 299.79 768.13 299.79 751.34 219.94 831.19 228.33 839.58"/><polygon class="cls-3" points="247.96 859.21 299.79 807.38 299.79 790.59 239.57 850.82 247.96 859.21"/><polygon class="cls-3" points="291.23 902.48 258.62 935.08 299.79 976.25 299.79 959.47 275.41 935.08 299.62 910.87 299.79 911.04 299.79 910.7 299.79 894.25 299.79 893.92 299.62 894.09 275.41 869.87 299.79 845.49 299.79 828.7 258.62 869.87 291.23 902.48"/><polygon class="cls-3" points="146.38 792.34 137.99 783.95 66.53 855.4 -4.93 783.95 -13.32 792.34 66.53 872.19 146.38 792.34"/><polygon class="cls-3" points="14.7 764.32 6.31 772.72 66.53 832.94 126.75 772.72 118.36 764.32 66.53 816.15 14.7 764.32"/><polygon class="cls-3" points="36.24 902.48 -43.61 822.63 -52 831.02 19.46 902.48 -52 973.93 -43.61 982.33 36.24 902.48"/><polygon class="cls-3" points="165.72 993.27 74.92 902.48 165.72 811.68 157.33 803.29 66.53 894.09 -24.27 803.29 -32.66 811.68 58.14 902.48 -32.66 993.27 -24.27 1001.67 66.53 910.87 157.33 1001.67 165.72 993.27"/><polygon class="cls-3" points="185.06 973.93 113.6 902.48 185.06 831.02 176.67 822.63 96.82 902.48 176.67 982.33 185.06 973.93"/><polygon class="cls-3" points="136.07 902.48 196.29 962.7 204.69 954.31 152.86 902.48 204.69 850.65 196.29 842.26 136.07 902.48"/><path class="cls-3" d="M256.52,902.48l-41.17-41.17-41.17,41.17,41.17,41.16Zm-41.17-24.39,24.38,24.39-24.38,24.38L191,902.48Z"/><polygon class="cls-3" points="146.38 1012.62 66.53 932.77 -13.32 1012.62 -4.93 1021.01 66.53 949.55 137.99 1021.01 146.38 1012.62"/><polygon class="cls-3" points="6.31 1032.24 14.7 1040.63 66.53 988.8 118.36 1040.63 126.75 1032.24 66.53 972.02 6.31 1032.24"/><path class="cls-3" d="M25.36,1051.3,58,1083.9H75.09l32.61-32.6-41.17-41.17Zm41.34,24.21-.17-.17-.17.17L42.15,1051.3l24.38-24.39,24.38,24.39Z"/><path class="cls-3" d="M23.26,721.05l-41.17-41.16-41.17,41.16,41.17,41.17Zm-41.17-24.38L6.47,721.05l-24.38,24.39L-42.3,721.05Z"/><polygon class="cls-3" points="219.94 248.06 299.79 327.91 299.79 311.13 228.33 239.67 219.94 248.06"/><polygon class="cls-3" points="239.57 228.44 299.79 288.66 299.79 271.88 247.96 220.05 239.57 228.44"/><polygon class="cls-3" points="189.65 278.35 181.26 286.74 252.72 358.2 252.72 358.2 181.26 429.66 189.65 438.05 269.5 358.2 269.5 358.2 269.5 358.2 189.65 278.35"/><polygon class="cls-3" points="230.25 358.2 170.03 297.98 161.63 306.37 213.47 358.2 213.47 358.2 161.63 410.03 170.03 418.42 230.25 358.2 230.25 358.2"/><path class="cls-3" d="M151,317,109.8,358.2,151,399.37l41.17-41.17Zm0,65.55L126.59,358.2,151,333.82l24.39,24.38Z"/><polygon class="cls-3" points="200.6 267.4 291.4 358.2 291.4 358.2 200.6 449 208.99 457.39 299.79 366.59 299.79 358.2 299.79 349.81 208.99 259.01 200.6 267.4"/><path class="cls-3" d="M-59.08,358.2l41.17,41.17L23.26,358.2-17.91,317Zm41.17,24.38L-42.3,358.2l24.39-24.38L6.47,358.2Z"/><polygon class="cls-3" points="189.65 75.2 269.5 -4.65 252.72 -4.65 181.26 66.81 189.65 75.2"/><polygon class="cls-3" points="170.03 55.57 230.25 -4.65 213.47 -4.65 161.63 47.18 170.03 55.57"/><polygon class="cls-3" points="192.14 -4.65 175.36 -4.65 150.97 19.73 126.59 -4.65 109.8 -4.65 150.97 36.52 192.14 -4.65"/><polygon class="cls-3" points="291.4 -4.65 200.6 86.15 208.99 94.54 299.79 3.74 299.79 -4.65 291.4 -4.65"/><polygon class="cls-3" points="228.33 113.88 299.79 42.42 299.79 25.64 219.94 105.49 228.33 113.88"/><polygon class="cls-3" points="247.96 133.51 299.79 81.68 299.79 64.89 239.57 125.11 247.96 133.51"/><polygon class="cls-3" points="291.23 176.78 258.62 209.38 299.79 250.55 299.79 233.77 275.41 209.38 299.62 185.17 299.79 185.34 299.79 185 299.79 168.55 299.79 168.22 299.62 168.38 275.41 144.17 299.79 119.78 299.79 103 258.62 144.17 291.23 176.78"/><polygon class="cls-3" points="-13.32 66.64 66.53 146.49 146.38 66.64 137.99 58.25 66.53 129.7 -4.93 58.25 -13.32 66.64"/><polygon class="cls-3" points="126.75 47.01 118.36 38.62 66.53 90.45 14.7 38.62 6.31 47.01 66.53 107.23 126.75 47.01"/><path class="cls-3" d="M107.7,28,75.09-4.65H58L25.36,28,66.53,69.13ZM66.36,3.74l.17.17.17-.17L90.91,28,66.53,52.34,42.15,28Z"/><polygon class="cls-3" points="-52 105.32 19.46 176.78 -52 248.23 -43.61 256.63 36.24 176.78 -43.61 96.93 -52 105.32"/><polygon class="cls-3" points="-32.66 85.98 58.14 176.78 -32.66 267.57 -24.27 275.96 66.53 185.17 157.33 275.96 165.72 267.57 74.92 176.78 165.72 85.98 157.33 77.59 66.53 168.38 -24.27 77.59 -32.66 85.98"/><polygon class="cls-3" points="113.6 176.78 185.06 105.32 176.67 96.93 96.82 176.78 176.67 256.63 185.06 248.23 113.6 176.78"/><polygon class="cls-3" points="136.07 176.78 196.29 237 204.69 228.6 152.86 176.78 204.69 124.94 196.29 116.55 136.07 176.78"/><path class="cls-3" d="M256.52,176.78l-41.17-41.17-41.17,41.17,41.17,41.16Zm-41.17-24.39,24.38,24.39-24.38,24.38L191,176.78Z"/><polygon class="cls-3" points="-13.32 286.91 -4.93 295.31 66.53 223.85 137.99 295.31 146.38 286.91 66.53 207.06 -13.32 286.91"/><polygon class="cls-3" points="118.36 314.93 126.75 306.54 66.53 246.32 6.31 306.54 14.7 314.93 66.53 263.1 118.36 314.93"/><polygon class="cls-3" points="23.26 -4.65 6.47 -4.65 -17.91 19.73 -42.3 -4.65 -59.08 -4.65 -17.91 36.52 23.26 -4.65"/></g><path class="cls-3" d="M280.5,61.75a15.12,15.12,0,0,0,7.32-1.89L393.27,1h-61.6L280.5,29.56,229.33,1H167.74L273.19,59.86A15.06,15.06,0,0,0,280.5,61.75Z"/><path class="cls-3" d="M644.31,61.75a15.06,15.06,0,0,0,7.31-1.89L757.07,1H695.48L644.31,29.56,593.13,1H531.54L637,59.86A15.09,15.09,0,0,0,644.31,61.75Z"/><polygon class="cls-3" points="-0.13 1 -0.13 17.52 29.47 1 -0.13 1"/><path class="cls-3" d="M1059.28,1l-51.17,28.56L956.94,1h-61.6l105.45,58.86a15.1,15.1,0,0,0,14.63,0l75.85-42.34V1Z"/><path class="cls-3" d="M861.51,1H790.9L644.31,82.81,497.71,1H427.1L280.5,82.81,133.91,1H63.3L-.13,36.4V70.78L98.6,15.68l171.24,95.56a15,15,0,0,0,2.89,2.13L455.09,215.14a15,15,0,0,0,14.63,0l72.5-40.46,71.75,40L462.41,299.31,291.17,203.74a15.3,15.3,0,0,0-2.89-2.13L105.92,99.84a15,15,0,0,0-14.63,0L18.79,140.3-.13,129.74v34.38l91.42,51a15,15,0,0,0,14.63,0l72.5-40.46,71.75,40L98.6,299.31-.13,244.2v34.38l91.42,51a15,15,0,0,0,14.63,0L280.5,232.16,455.09,329.6a15,15,0,0,0,14.63,0l174.59-97.44L818.9,329.6a15,15,0,0,0,14.62,0l174.59-97.44,83.16,46.42V244.2l-72.5-40.46a15,15,0,0,0-2.89-2.13L833.52,99.84a15,15,0,0,0-14.62,0L746.39,140.3l-71.75-40L826.2,15.68l171.25,95.56a14.92,14.92,0,0,0,2.88,2.13l90.94,50.75V129.74l-52.82-29.48,52.82-29.48V36.4l-83.16,46.41ZM98.6,184.85l-49-27.36,49-27.36,49,27.36Zm363.81,0-49-27.36,49-27.36,49,27.36ZM826.2,130.13l49,27.36-49,27.36-49-27.36Zm-7.3,85a15,15,0,0,0,14.62,0L906,174.68l71.75,40L826.21,299.31,655,203.74a15.3,15.3,0,0,0-2.89-2.13L469.72,99.84a15,15,0,0,0-14.63,0l-72.5,40.46-71.75-40L462.41,15.68l171.23,95.56a15.3,15.3,0,0,0,2.89,2.13Z"/><path class="cls-3" d="M1000.79,255.13,826.21,352.56,651.62,255.13a15,15,0,0,0-14.63,0L462.41,352.56,287.82,255.13a15,15,0,0,0-14.63,0L98.6,352.56-.13,297.46v34.37L87.94,381a15,15,0,0,0,2.89,2.13L273.19,484.89a15,15,0,0,0,14.63,0l72.5-40.46,71.75,40L280.5,569.06,109.27,473.49a15.3,15.3,0,0,0-2.89-2.13L-.13,411.92V446.3l68.4,38.17L-.13,522.64V557L98.6,501.91l174.59,97.44a15,15,0,0,0,14.63,0l174.59-97.44L637,599.35a15,15,0,0,0,14.63,0l174.59-97.44,174.58,97.44a15,15,0,0,0,14.63,0L1091.27,557V522.64l-83.16,46.42L836.87,473.49a15.3,15.3,0,0,0-2.89-2.13L651.62,369.59a15,15,0,0,0-14.63,0l-72.5,40.46-71.75-40L644.3,285.42,815.55,381a14.92,14.92,0,0,0,2.88,2.13l182.36,101.77a15,15,0,0,0,14.63,0l72.5-40.46,3.35,1.87V411.92l-75.85-42.33a15,15,0,0,0-14.63,0l-72.5,40.46-71.75-40,151.57-84.59,83.16,46.41V297.46l-75.85-42.33A15,15,0,0,0,1000.79,255.13ZM280.5,454.6l-49-27.36,49-27.36,49,27.36Zm363.8-54.72,49,27.36-49,27.36-49-27.36Zm-7.31,85a15,15,0,0,0,14.63,0l72.5-40.46,71.75,40L644.31,569.06,473.07,473.49a15.3,15.3,0,0,0-2.89-2.13L287.82,369.59a15,15,0,0,0-14.63,0l-72.5,40.46-71.75-40L280.5,285.42,451.74,381a15.3,15.3,0,0,0,2.89,2.13Zm371.12-85,49,27.36-49,27.36-49-27.36Z"/><path class="cls-3" d="M833.52,524.88a15,15,0,0,0-14.62,0L644.31,622.31,469.72,524.88a15,15,0,0,0-14.63,0L280.5,622.31,105.92,524.88a15,15,0,0,0-14.63,0l-91.42,51v34.38L98.6,555.17l171.24,95.58a14.58,14.58,0,0,0,2.89,2.13L455.09,754.65a15,15,0,0,0,14.63,0l72.5-40.45,71.75,40L462.41,838.83,291.17,743.26a15.3,15.3,0,0,0-2.89-2.13L105.92,639.35a15,15,0,0,0-14.63,0l-72.5,40.47L-.13,669.26v34.37l91.42,51a15,15,0,0,0,14.63,0l72.5-40.45,71.75,40L98.6,838.83-.13,783.72V818.1l91.42,51a15,15,0,0,0,14.63,0L280.5,771.68l174.59,97.44a15,15,0,0,0,14.63,0l174.59-97.44L818.9,869.12a15,15,0,0,0,14.62,0l174.59-97.44,83.16,46.42V783.72l-72.5-40.46a15,15,0,0,0-2.89-2.13L833.52,639.35a15,15,0,0,0-14.62,0l-72.51,40.47-71.75-40.05,151.56-84.6,171.25,95.58a14.51,14.51,0,0,0,2.88,2.13l90.94,50.75V669.26l-52.82-29.49,52.82-29.48V575.9l-83.16,46.41ZM98.6,724.36,49.59,697l49-27.35,49,27.35Zm363.81,0-49-27.35,49-27.35,49,27.35Zm363.79-54.7,49,27.35-49,27.35-49-27.35Zm-7.3,85a14.94,14.94,0,0,0,14.62,0L906,714.2l71.75,40L826.21,838.83,655,743.26a15.3,15.3,0,0,0-2.89-2.13L469.72,639.35a15,15,0,0,0-14.63,0l-72.5,40.47-71.75-40.05,151.57-84.6,171.23,95.58a14.88,14.88,0,0,0,2.89,2.13Z"/><path class="cls-3" d="M106.38,1010.88-.13,951.44v34.38L68.27,1024l-68.4,38.17V1080H29.5l69.1-38.56L167.7,1080h61.6l-120-67A15.35,15.35,0,0,0,106.38,1010.88Z"/><polygon class="cls-3" points="1091.27 1080 1091.27 1062.16 1059.31 1080 1091.27 1080"/><path class="cls-3" d="M1000.79,794.65,826.21,892.08,651.62,794.65a15,15,0,0,0-14.63,0L462.41,892.08,287.82,794.65a15,15,0,0,0-14.63,0L98.6,892.08-.13,837v34.37L87.94,920.5a14.58,14.58,0,0,0,2.89,2.13L273.19,1024.4a15,15,0,0,0,14.63,0L360.32,984l71.75,40-100.36,56H393.3l69.11-38.56,69.1,38.56H593.1l-120-67a15.35,15.35,0,0,0-2.89-2.14L287.82,909.11a15,15,0,0,0-14.63,0l-72.5,40.46-71.75-40.05L280.5,824.94,451.74,920.5a14.88,14.88,0,0,0,2.89,2.13L637,1024.4a15,15,0,0,0,14.63,0L724.12,984l71.75,40-100.36,56H757.1l69.11-38.56,69.1,38.56H956.9l-120-67a15.35,15.35,0,0,0-2.89-2.14L651.62,909.11a15,15,0,0,0-14.63,0l-72.5,40.46-71.75-40.05L644.3,824.94,815.55,920.5a14.51,14.51,0,0,0,2.88,2.13l182.36,101.77a15,15,0,0,0,14.63,0l72.5-40.45,3.35,1.87V951.44l-75.85-42.33a15,15,0,0,0-14.63,0l-72.5,40.46-71.75-40.05,151.57-84.58,83.16,46.41V837l-75.85-42.33A15,15,0,0,0,1000.79,794.65ZM280.5,939.4l49,27.35-49,27.36-49-27.36Zm363.8,0,49,27.35-49,27.36-49-27.36Zm363.81,0,49,27.35-49,27.36-49-27.36Z"/><path class="cls-3" d="M91.29,1064.4l-28,15.6h70.55l-28-15.6A15,15,0,0,0,91.29,1064.4Z"/><path class="cls-3" d="M455.09,1064.4l-28,15.6h70.54l-27.95-15.6A15,15,0,0,0,455.09,1064.4Z"/><path class="cls-3" d="M818.9,1064.4l-28,15.6h70.55l-28-15.6A15,15,0,0,0,818.9,1064.4Z"/></svg>