<svg id="Layer_1" data-name="Layer 1" xmlns="http://www.w3.org/2000/svg" xmlns:xlink="http://www.w3.org/1999/xlink" viewBox="0 0 1080 1080"><defs><style>.cls-1{fill:none;}.cls-2{clip-path:url(#clip-path);}.cls-3{fill:#54bb74;}</style><clipPath id="clip-path"><rect class="cls-1" x="-0.28" y="-0.18" width="1080.18" height="1080.18"/></clipPath></defs><title>LIMI_Pattern</title><g class="cls-2"><rect class="cls-3" x="1079.9" y="157.35" width="22.5" height="22.5"/><polygon class="cls-3" points="1214.93 44.83 1214.93 67.33 1214.93 179.85 1237.43 179.85 1237.43 44.83 1237.43 22.32 1214.93 22.32 1079.9 22.32 1079.9 44.83 1192.42 44.83 1214.93 44.83"/><polygon class="cls-3" points="1169.92 89.83 1169.92 112.34 1169.92 179.85 1192.42 179.85 1192.42 89.83 1192.42 67.33 1169.92 67.33 1079.9 67.33 1079.9 89.83 1147.42 89.83 1169.92 89.83"/><polygon class="cls-3" points="1124.91 134.84 1124.91 157.35 1124.91 179.85 1147.42 179.85 1147.42 134.84 1147.42 112.34 1124.91 112.34 1079.9 112.34 1079.9 134.84 1102.41 134.84 1124.91 134.84"/><rect class="cls-3" x="899.87" y="-0.18" width="22.5" height="22.5"/><polygon class="cls-3" points="1034.9 134.84 1012.39 134.84 899.87 134.84 899.87 157.35 1034.9 157.35 1057.4 157.35 1057.4 134.84 1057.4 -0.18 1034.9 -0.18 1034.9 112.34 1034.9 134.84"/><polygon class="cls-3" points="989.89 89.83 967.38 89.83 899.87 89.83 899.87 112.34 989.89 112.34 1012.39 112.34 1012.39 89.83 1012.39 -0.18 989.89 -0.18 989.89 67.33 989.89 89.83"/><polygon class="cls-3" points="944.88 44.83 922.38 44.83 899.87 44.83 899.87 67.33 944.88 67.33 967.38 67.33 967.38 44.83 967.38 -0.18 944.88 -0.18 944.88 22.32 944.88 44.83"/><rect class="cls-3" x="719.84" y="157.35" width="22.5" height="22.5"/><polygon class="cls-3" points="854.87 44.83 854.87 67.33 854.87 179.85 877.37 179.85 877.37 44.83 877.37 22.32 854.87 22.32 719.84 22.32 719.84 44.83 832.36 44.83 854.87 44.83"/><polygon class="cls-3" points="809.86 89.83 809.86 112.34 809.86 179.85 832.36 179.85 832.36 89.83 832.36 67.33 809.86 67.33 719.84 67.33 719.84 89.83 787.36 89.83 809.86 89.83"/><polygon class="cls-3" points="764.85 134.84 764.85 157.35 764.85 179.85 787.36 179.85 787.36 134.84 787.36 112.34 764.85 112.34 719.84 112.34 719.84 134.84 742.35 134.84 764.85 134.84"/><rect class="cls-3" x="539.81" y="-0.18" width="22.5" height="22.5"/><polygon class="cls-3" points="674.84 134.84 652.33 134.84 539.81 134.84 539.81 157.35 674.84 157.35 697.34 157.35 697.34 134.84 697.34 -0.18 674.84 -0.18 674.84 112.34 674.84 134.84"/><polygon class="cls-3" points="629.83 89.83 607.33 89.83 539.81 89.83 539.81 112.34 629.83 112.34 652.33 112.34 652.33 89.83 652.33 -0.18 629.83 -0.18 629.83 67.33 629.83 89.83"/><polygon class="cls-3" points="584.82 44.83 562.32 44.83 539.81 44.83 539.81 67.33 584.82 67.33 607.33 67.33 607.33 44.83 607.33 -0.18 584.82 -0.18 584.82 22.32 584.82 44.83"/><rect class="cls-3" x="359.78" y="157.35" width="22.5" height="22.5"/><polygon class="cls-3" points="494.81 44.83 494.81 67.33 494.81 179.85 517.31 179.85 517.31 44.83 517.31 22.32 494.81 22.32 359.78 22.32 359.78 44.83 472.3 44.83 494.81 44.83"/><polygon class="cls-3" points="449.8 89.83 449.8 112.34 449.8 179.85 472.3 179.85 472.3 89.83 472.3 67.33 449.8 67.33 359.78 67.33 359.78 89.83 427.3 89.83 449.8 89.83"/><polygon class="cls-3" points="404.79 134.84 404.79 157.35 404.79 179.85 427.3 179.85 427.3 134.84 427.3 112.34 404.79 112.34 359.78 112.34 359.78 134.84 382.29 134.84 404.79 134.84"/><rect class="cls-3" x="179.75" y="-0.18" width="22.5" height="22.5"/><polygon class="cls-3" points="314.78 134.84 292.27 134.84 179.75 134.84 179.75 157.35 314.78 157.35 337.28 157.35 337.28 134.84 337.28 -0.18 314.78 -0.18 314.78 112.34 314.78 134.84"/><polygon class="cls-3" points="269.77 89.83 247.26 89.83 179.75 89.83 179.75 112.34 269.77 112.34 292.27 112.34 292.27 89.83 292.27 -0.18 269.77 -0.18 269.77 67.33 269.77 89.83"/><polygon class="cls-3" points="224.76 44.83 202.26 44.83 179.75 44.83 179.75 67.33 224.76 67.33 247.26 67.33 247.26 44.83 247.26 -0.18 224.76 -0.18 224.76 22.32 224.76 44.83"/><rect class="cls-3" x="-0.28" y="157.35" width="22.5" height="22.5"/><polygon class="cls-3" points="134.75 44.83 134.75 67.33 134.75 179.85 157.25 179.85 157.25 44.83 157.25 22.32 134.75 22.32 -0.28 22.32 -0.28 44.83 112.24 44.83 134.75 44.83"/><polygon class="cls-3" points="89.74 89.83 89.74 112.34 89.74 179.85 112.24 179.85 112.24 89.83 112.24 67.33 89.74 67.33 -0.28 67.33 -0.28 89.83 67.23 89.83 89.74 89.83"/><polygon class="cls-3" points="44.73 134.84 44.73 157.35 44.73 179.85 67.23 179.85 67.23 134.84 67.23 112.34 44.73 112.34 -0.28 112.34 -0.28 134.84 22.23 134.84 44.73 134.84"/><rect class="cls-3" x="1057.4" y="179.85" width="22.5" height="22.5"/><polygon class="cls-3" points="1079.9 337.38 1079.9 314.87 967.38 314.87 944.88 314.87 944.88 292.37 944.88 179.85 922.38 179.85 922.38 314.87 922.38 337.38 944.88 337.38 1079.9 337.38"/><polygon class="cls-3" points="1079.9 292.37 1079.9 269.86 1012.39 269.86 989.89 269.86 989.89 247.36 989.89 179.85 967.38 179.85 967.38 269.86 967.38 292.37 989.89 292.37 1079.9 292.37"/><polygon class="cls-3" points="1079.9 247.36 1079.9 224.86 1057.4 224.86 1034.9 224.86 1034.9 202.35 1034.9 179.85 1012.39 179.85 1012.39 224.86 1012.39 247.36 1034.9 247.36 1079.9 247.36"/><rect class="cls-3" x="877.37" y="337.38" width="22.5" height="22.5"/><polygon class="cls-3" points="742.35 202.35 742.35 224.86 742.35 359.88 764.85 359.88 764.85 247.36 764.85 224.86 787.36 224.86 899.87 224.86 899.87 202.35 764.85 202.35 742.35 202.35"/><polygon class="cls-3" points="899.87 247.36 809.86 247.36 787.36 247.36 787.36 269.86 787.36 359.88 809.86 359.88 809.86 292.37 809.86 269.86 832.36 269.86 899.87 269.86 899.87 247.36"/><polygon class="cls-3" points="832.36 314.87 832.36 359.88 854.87 359.88 854.87 337.38 854.87 314.87 877.37 314.87 899.87 314.87 899.87 292.37 854.87 292.37 832.36 292.37 832.36 314.87"/><rect class="cls-3" x="697.34" y="179.85" width="22.5" height="22.5"/><polygon class="cls-3" points="719.84 337.38 719.84 314.87 607.33 314.87 584.82 314.87 584.82 292.37 584.82 179.85 562.32 179.85 562.32 314.87 562.32 337.38 584.82 337.38 719.84 337.38"/><polygon class="cls-3" points="719.84 292.37 719.84 269.86 652.33 269.86 629.83 269.86 629.83 247.36 629.83 179.85 607.33 179.85 607.33 269.86 607.33 292.37 629.83 292.37 719.84 292.37"/><polygon class="cls-3" points="719.84 247.36 719.84 224.86 697.34 224.86 674.84 224.86 674.84 202.35 674.84 179.85 652.33 179.85 652.33 224.86 652.33 247.36 674.84 247.36 719.84 247.36"/><rect class="cls-3" x="517.31" y="337.38" width="22.5" height="22.5"/><polygon class="cls-3" points="382.29 202.35 382.29 224.86 382.29 359.88 404.79 359.88 404.79 247.36 404.79 224.86 427.3 224.86 539.81 224.86 539.81 202.35 404.79 202.35 382.29 202.35"/><polygon class="cls-3" points="539.81 247.36 449.8 247.36 427.3 247.36 427.3 269.86 427.3 359.88 449.8 359.88 449.8 292.37 449.8 269.86 472.3 269.86 539.81 269.86 539.81 247.36"/><polygon class="cls-3" points="472.3 314.87 472.3 359.88 494.81 359.88 494.81 337.38 494.81 314.87 517.31 314.87 539.81 314.87 539.81 292.37 494.81 292.37 472.3 292.37 472.3 314.87"/><rect class="cls-3" x="337.28" y="179.85" width="22.5" height="22.5"/><polygon class="cls-3" points="359.78 337.38 359.78 314.87 247.26 314.87 224.76 314.87 224.76 292.37 224.76 179.85 202.26 179.85 202.26 314.87 202.26 337.38 224.76 337.38 359.78 337.38"/><polygon class="cls-3" points="359.78 292.37 359.78 269.86 292.27 269.86 269.77 269.86 269.77 247.36 269.77 179.85 247.26 179.85 247.26 269.86 247.26 292.37 269.77 292.37 359.78 292.37"/><polygon class="cls-3" points="359.78 247.36 359.78 224.86 337.28 224.86 314.78 224.86 314.78 202.35 314.78 179.85 292.27 179.85 292.27 224.86 292.27 247.36 314.78 247.36 359.78 247.36"/><rect class="cls-3" x="157.25" y="337.38" width="22.5" height="22.5"/><polygon class="cls-3" points="179.75 224.86 179.75 202.35 44.73 202.35 22.23 202.35 22.23 224.86 22.23 359.88 44.73 359.88 44.73 247.36 44.73 224.86 67.23 224.86 179.75 224.86"/><polygon class="cls-3" points="179.75 269.86 179.75 247.36 89.74 247.36 67.23 247.36 67.23 269.86 67.23 359.88 89.74 359.88 89.74 292.37 89.74 269.86 112.24 269.86 179.75 269.86"/><polygon class="cls-3" points="179.75 314.87 179.75 292.37 134.75 292.37 112.24 292.37 112.24 314.87 112.24 359.88 134.75 359.88 134.75 337.38 134.75 314.87 157.25 314.87 179.75 314.87"/><rect class="cls-3" x="1079.9" y="517.41" width="22.5" height="22.5"/><polygon class="cls-3" points="1079.9 404.89 1192.42 404.89 1214.93 404.89 1214.93 427.39 1214.93 539.91 1237.43 539.91 1237.43 404.89 1237.43 382.38 1214.93 382.38 1079.9 382.38 1079.9 404.89"/><polygon class="cls-3" points="1079.9 449.89 1147.42 449.89 1169.92 449.89 1169.92 472.4 1169.92 539.91 1192.42 539.91 1192.42 449.89 1192.42 427.39 1169.92 427.39 1079.9 427.39 1079.9 449.89"/><polygon class="cls-3" points="1079.9 494.9 1102.41 494.9 1124.91 494.9 1124.91 517.41 1124.91 539.91 1147.42 539.91 1147.42 494.9 1147.42 472.4 1124.91 472.4 1079.9 472.4 1079.9 494.9"/><rect class="cls-3" x="899.87" y="359.88" width="22.5" height="22.5"/><polygon class="cls-3" points="899.87 517.41 1034.9 517.41 1057.4 517.41 1057.4 494.9 1057.4 359.88 1034.9 359.88 1034.9 472.4 1034.9 494.9 1012.39 494.9 899.87 494.9 899.87 517.41"/><polygon class="cls-3" points="899.87 472.4 989.89 472.4 1012.39 472.4 1012.39 449.89 1012.39 359.88 989.89 359.88 989.89 427.39 989.89 449.89 967.38 449.89 899.87 449.89 899.87 472.4"/><polygon class="cls-3" points="967.38 404.89 967.38 359.88 944.88 359.88 944.88 382.38 944.88 404.89 922.38 404.89 899.87 404.89 899.87 427.39 944.88 427.39 967.38 427.39 967.38 404.89"/><rect class="cls-3" x="719.84" y="517.41" width="22.5" height="22.5"/><polygon class="cls-3" points="719.84 404.89 832.36 404.89 854.87 404.89 854.87 427.39 854.87 539.91 877.37 539.91 877.37 404.89 877.37 382.38 854.87 382.38 719.84 382.38 719.84 404.89"/><polygon class="cls-3" points="719.84 449.89 787.36 449.89 809.86 449.89 809.86 472.4 809.86 539.91 832.36 539.91 832.36 449.89 832.36 427.39 809.86 427.39 719.84 427.39 719.84 449.89"/><polygon class="cls-3" points="719.84 494.9 742.35 494.9 764.85 494.9 764.85 517.41 764.85 539.91 787.36 539.91 787.36 494.9 787.36 472.4 764.85 472.4 719.84 472.4 719.84 494.9"/><rect class="cls-3" x="539.81" y="359.88" width="22.5" height="22.5"/><polygon class="cls-3" points="539.81 517.41 674.84 517.41 697.34 517.41 697.34 494.9 697.34 359.88 674.84 359.88 674.84 472.4 674.84 494.9 652.33 494.9 539.81 494.9 539.81 517.41"/><polygon class="cls-3" points="539.81 472.4 629.83 472.4 652.33 472.4 652.33 449.89 652.33 359.88 629.83 359.88 629.83 427.39 629.83 449.89 607.33 449.89 539.81 449.89 539.81 472.4"/><polygon class="cls-3" points="607.33 404.89 607.33 359.88 584.82 359.88 584.82 382.38 584.82 404.89 562.32 404.89 539.81 404.89 539.81 427.39 584.82 427.39 607.33 427.39 607.33 404.89"/><rect class="cls-3" x="359.78" y="517.41" width="22.5" height="22.5"/><polygon class="cls-3" points="359.78 404.89 472.3 404.89 494.81 404.89 494.81 427.39 494.81 539.91 517.31 539.91 517.31 404.89 517.31 382.38 494.81 382.38 359.78 382.38 359.78 404.89"/><polygon class="cls-3" points="359.78 449.89 427.3 449.89 449.8 449.89 449.8 472.4 449.8 539.91 472.3 539.91 472.3 449.89 472.3 427.39 449.8 427.39 359.78 427.39 359.78 449.89"/><polygon class="cls-3" points="359.78 494.9 382.29 494.9 404.79 494.9 404.79 517.41 404.79 539.91 427.3 539.91 427.3 494.9 427.3 472.4 404.79 472.4 359.78 472.4 359.78 494.9"/><rect class="cls-3" x="179.75" y="359.88" width="22.5" height="22.5"/><polygon class="cls-3" points="179.75 517.41 314.78 517.41 337.28 517.41 337.28 494.9 337.28 359.88 314.78 359.88 314.78 472.4 314.78 494.9 292.27 494.9 179.75 494.9 179.75 517.41"/><polygon class="cls-3" points="179.75 472.4 269.77 472.4 292.27 472.4 292.27 449.89 292.27 359.88 269.77 359.88 269.77 427.39 269.77 449.89 247.26 449.89 179.75 449.89 179.75 472.4"/><polygon class="cls-3" points="247.26 404.89 247.26 359.88 224.76 359.88 224.76 382.38 224.76 404.89 202.26 404.89 179.75 404.89 179.75 427.39 224.76 427.39 247.26 427.39 247.26 404.89"/><rect class="cls-3" x="-0.28" y="517.41" width="22.5" height="22.5"/><polygon class="cls-3" points="134.75 404.89 134.75 427.39 134.75 539.91 157.25 539.91 157.25 404.89 157.25 382.38 134.75 382.38 -0.28 382.38 -0.28 404.89 112.24 404.89 134.75 404.89"/><polygon class="cls-3" points="89.74 449.89 89.74 472.4 89.74 539.91 112.24 539.91 112.24 449.89 112.24 427.39 89.74 427.39 -0.28 427.39 -0.28 449.89 67.23 449.89 89.74 449.89"/><polygon class="cls-3" points="44.73 494.9 44.73 517.41 44.73 539.91 67.23 539.91 67.23 494.9 67.23 472.4 44.73 472.4 -0.28 472.4 -0.28 494.9 22.23 494.9 44.73 494.9"/><rect class="cls-3" x="1057.4" y="539.91" width="22.5" height="22.5"/><polygon class="cls-3" points="1079.9 674.93 967.38 674.93 944.88 674.93 944.88 652.43 944.88 539.91 922.38 539.91 922.38 674.93 922.38 697.44 944.88 697.44 1079.9 697.44 1079.9 674.93"/><polygon class="cls-3" points="1079.9 629.92 1012.39 629.92 989.89 629.92 989.89 607.42 989.89 539.91 967.38 539.91 967.38 629.92 967.38 652.43 989.89 652.43 1079.9 652.43 1079.9 629.92"/><polygon class="cls-3" points="1079.9 584.92 1057.4 584.92 1034.9 584.92 1034.9 562.41 1034.9 539.91 1012.39 539.91 1012.39 584.92 1012.39 607.42 1034.9 607.42 1079.9 607.42 1079.9 584.92"/><rect class="cls-3" x="877.37" y="697.44" width="22.5" height="22.5"/><polygon class="cls-3" points="899.87 562.41 764.85 562.41 742.35 562.41 742.35 584.92 742.35 719.94 764.85 719.94 764.85 607.42 764.85 584.92 787.36 584.92 899.87 584.92 899.87 562.41"/><polygon class="cls-3" points="899.87 607.42 809.86 607.42 787.36 607.42 787.36 629.92 787.36 719.94 809.86 719.94 809.86 652.43 809.86 629.92 832.36 629.92 899.87 629.92 899.87 607.42"/><polygon class="cls-3" points="832.36 674.93 832.36 719.94 854.87 719.94 854.87 697.44 854.87 674.93 877.37 674.93 899.87 674.93 899.87 652.43 854.87 652.43 832.36 652.43 832.36 674.93"/><rect class="cls-3" x="697.34" y="539.91" width="22.5" height="22.5"/><polygon class="cls-3" points="719.84 674.93 607.33 674.93 584.82 674.93 584.82 652.43 584.82 539.91 562.32 539.91 562.32 674.93 562.32 697.44 584.82 697.44 719.84 697.44 719.84 674.93"/><polygon class="cls-3" points="719.84 629.92 652.33 629.92 629.83 629.92 629.83 607.42 629.83 539.91 607.33 539.91 607.33 629.92 607.33 652.43 629.83 652.43 719.84 652.43 719.84 629.92"/><polygon class="cls-3" points="719.84 584.92 697.34 584.92 674.84 584.92 674.84 562.41 674.84 539.91 652.33 539.91 652.33 584.92 652.33 607.42 674.84 607.42 719.84 607.42 719.84 584.92"/><rect class="cls-3" x="517.31" y="697.44" width="22.5" height="22.5"/><polygon class="cls-3" points="539.81 562.41 404.79 562.41 382.29 562.41 382.29 584.92 382.29 719.94 404.79 719.94 404.79 607.42 404.79 584.92 427.3 584.92 539.81 584.92 539.81 562.41"/><polygon class="cls-3" points="539.81 607.42 449.8 607.42 427.3 607.42 427.3 629.92 427.3 719.94 449.8 719.94 449.8 652.43 449.8 629.92 472.3 629.92 539.81 629.92 539.81 607.42"/><polygon class="cls-3" points="472.3 674.93 472.3 719.94 494.81 719.94 494.81 697.44 494.81 674.93 517.31 674.93 539.81 674.93 539.81 652.43 494.81 652.43 472.3 652.43 472.3 674.93"/><rect class="cls-3" x="337.28" y="539.91" width="22.5" height="22.5"/><polygon class="cls-3" points="359.78 674.93 247.26 674.93 224.76 674.93 224.76 652.43 224.76 539.91 202.26 539.91 202.26 674.93 202.26 697.44 224.76 697.44 359.78 697.44 359.78 674.93"/><polygon class="cls-3" points="359.78 629.92 292.27 629.92 269.77 629.92 269.77 607.42 269.77 539.91 247.26 539.91 247.26 629.92 247.26 652.43 269.77 652.43 359.78 652.43 359.78 629.92"/><polygon class="cls-3" points="359.78 584.92 337.28 584.92 314.78 584.92 314.78 562.41 314.78 539.91 292.27 539.91 292.27 584.92 292.27 607.42 314.78 607.42 359.78 607.42 359.78 584.92"/><rect class="cls-3" x="157.25" y="697.44" width="22.5" height="22.5"/><polygon class="cls-3" points="179.75 584.92 179.75 562.41 44.73 562.41 22.23 562.41 22.23 584.92 22.23 719.94 44.73 719.94 44.73 607.42 44.73 584.92 67.23 584.92 179.75 584.92"/><polygon class="cls-3" points="179.75 629.92 179.75 607.42 89.74 607.42 67.23 607.42 67.23 629.92 67.23 719.94 89.74 719.94 89.74 652.43 89.74 629.92 112.24 629.92 179.75 629.92"/><polygon class="cls-3" points="179.75 674.93 179.75 652.43 134.75 652.43 112.24 652.43 112.24 674.93 112.24 719.94 134.75 719.94 134.75 697.44 134.75 674.93 157.25 674.93 179.75 674.93"/><rect class="cls-3" x="1079.9" y="877.47" width="22.5" height="22.5"/><polygon class="cls-3" points="1079.9 742.44 1079.9 764.95 1192.42 764.95 1214.93 764.95 1214.93 787.45 1214.93 899.97 1237.43 899.97 1237.43 764.95 1237.43 742.44 1214.93 742.44 1079.9 742.44"/><polygon class="cls-3" points="1079.9 787.45 1079.9 809.96 1147.42 809.96 1169.92 809.96 1169.92 832.46 1169.92 899.97 1192.42 899.97 1192.42 809.96 1192.42 787.45 1169.92 787.45 1079.9 787.45"/><polygon class="cls-3" points="1079.9 832.46 1079.9 854.96 1102.41 854.96 1124.91 854.96 1124.91 877.47 1124.91 899.97 1147.42 899.97 1147.42 854.96 1147.42 832.46 1124.91 832.46 1079.9 832.46"/><rect class="cls-3" x="899.87" y="719.94" width="22.5" height="22.5"/><polygon class="cls-3" points="1057.4 877.47 1057.4 854.96 1057.4 719.94 1034.9 719.94 1034.9 832.46 1034.9 854.96 1012.39 854.96 899.87 854.96 899.87 877.47 1034.9 877.47 1057.4 877.47"/><polygon class="cls-3" points="899.87 832.46 989.89 832.46 1012.39 832.46 1012.39 809.96 1012.39 719.94 989.89 719.94 989.89 787.45 989.89 809.96 967.38 809.96 899.87 809.96 899.87 832.46"/><polygon class="cls-3" points="967.38 764.95 967.38 719.94 944.88 719.94 944.88 742.44 944.88 764.95 922.38 764.95 899.87 764.95 899.87 787.45 944.88 787.45 967.38 787.45 967.38 764.95"/><rect class="cls-3" x="719.84" y="877.47" width="22.5" height="22.5"/><polygon class="cls-3" points="719.84 742.44 719.84 764.95 832.36 764.95 854.87 764.95 854.87 787.45 854.87 899.97 877.37 899.97 877.37 764.95 877.37 742.44 854.87 742.44 719.84 742.44"/><polygon class="cls-3" points="719.84 787.45 719.84 809.96 787.36 809.96 809.86 809.96 809.86 832.46 809.86 899.97 832.36 899.97 832.36 809.96 832.36 787.45 809.86 787.45 719.84 787.45"/><polygon class="cls-3" points="719.84 832.46 719.84 854.96 742.35 854.96 764.85 854.96 764.85 877.47 764.85 899.97 787.36 899.97 787.36 854.96 787.36 832.46 764.85 832.46 719.84 832.46"/><rect class="cls-3" x="539.81" y="719.94" width="22.5" height="22.5"/><polygon class="cls-3" points="697.34 877.47 697.34 854.96 697.34 719.94 674.84 719.94 674.84 832.46 674.84 854.96 652.33 854.96 539.81 854.96 539.81 877.47 674.84 877.47 697.34 877.47"/><polygon class="cls-3" points="539.81 832.46 629.83 832.46 652.33 832.46 652.33 809.96 652.33 719.94 629.83 719.94 629.83 787.45 629.83 809.96 607.33 809.96 539.81 809.96 539.81 832.46"/><polygon class="cls-3" points="607.33 764.95 607.33 719.94 584.82 719.94 584.82 742.44 584.82 764.95 562.32 764.95 539.81 764.95 539.81 787.45 584.82 787.45 607.33 787.45 607.33 764.95"/><rect class="cls-3" x="359.78" y="877.47" width="22.5" height="22.5"/><polygon class="cls-3" points="359.78 742.44 359.78 764.95 472.3 764.95 494.81 764.95 494.81 787.45 494.81 899.97 517.31 899.97 517.31 764.95 517.31 742.44 494.81 742.44 359.78 742.44"/><polygon class="cls-3" points="359.78 787.45 359.78 809.96 427.3 809.96 449.8 809.96 449.8 832.46 449.8 899.97 472.3 899.97 472.3 809.96 472.3 787.45 449.8 787.45 359.78 787.45"/><polygon class="cls-3" points="359.78 832.46 359.78 854.96 382.29 854.96 404.79 854.96 404.79 877.47 404.79 899.97 427.3 899.97 427.3 854.96 427.3 832.46 404.79 832.46 359.78 832.46"/><rect class="cls-3" x="179.75" y="719.94" width="22.5" height="22.5"/><polygon class="cls-3" points="337.28 877.47 337.28 854.96 337.28 719.94 314.78 719.94 314.78 832.46 314.78 854.96 292.27 854.96 179.75 854.96 179.75 877.47 314.78 877.47 337.28 877.47"/><polygon class="cls-3" points="179.75 832.46 269.77 832.46 292.27 832.46 292.27 809.96 292.27 719.94 269.77 719.94 269.77 787.45 269.77 809.96 247.26 809.96 179.75 809.96 179.75 832.46"/><polygon class="cls-3" points="247.26 764.95 247.26 719.94 224.76 719.94 224.76 742.44 224.76 764.95 202.26 764.95 179.75 764.95 179.75 787.45 224.76 787.45 247.26 787.45 247.26 764.95"/><rect class="cls-3" x="-0.28" y="877.47" width="22.5" height="22.5"/><polygon class="cls-3" points="134.75 764.95 134.75 787.45 134.75 899.97 157.25 899.97 157.25 764.95 157.25 742.44 134.75 742.44 -0.28 742.44 -0.28 764.95 112.24 764.95 134.75 764.95"/><polygon class="cls-3" points="89.74 809.96 89.74 832.46 89.74 899.97 112.24 899.97 112.24 809.96 112.24 787.45 89.74 787.45 -0.28 787.45 -0.28 809.96 67.23 809.96 89.74 809.96"/><polygon class="cls-3" points="44.73 854.96 44.73 877.47 44.73 899.97 67.23 899.97 67.23 854.96 67.23 832.46 44.73 832.46 -0.28 832.46 -0.28 854.96 22.23 854.96 44.73 854.96"/><rect class="cls-3" x="1057.4" y="899.97" width="22.5" height="22.5"/><polygon class="cls-3" points="944.88 1034.99 944.88 1012.49 944.88 899.97 922.38 899.97 922.38 1034.99 922.38 1057.5 944.88 1057.5 1079.9 1057.5 1079.9 1034.99 967.38 1034.99 944.88 1034.99"/><polygon class="cls-3" points="989.89 989.99 989.89 967.48 989.89 899.97 967.38 899.97 967.38 989.99 967.38 1012.49 989.89 1012.49 1079.9 1012.49 1079.9 989.99 1012.39 989.99 989.89 989.99"/><polygon class="cls-3" points="1034.9 944.98 1034.9 922.47 1034.9 899.97 1012.39 899.97 1012.39 944.98 1012.39 967.48 1034.9 967.48 1079.9 967.48 1079.9 944.98 1057.4 944.98 1034.9 944.98"/><rect class="cls-3" x="877.37" y="1057.5" width="22.5" height="22.5"/><polygon class="cls-3" points="764.85 944.98 787.36 944.98 899.87 944.98 899.87 922.47 764.85 922.47 742.35 922.47 742.35 944.98 742.35 1080 764.85 1080 764.85 967.48 764.85 944.98"/><polygon class="cls-3" points="809.86 989.99 832.36 989.99 899.87 989.99 899.87 967.48 809.86 967.48 787.36 967.48 787.36 989.99 787.36 1080 809.86 1080 809.86 1012.49 809.86 989.99"/><polygon class="cls-3" points="854.87 1034.99 877.37 1034.99 899.87 1034.99 899.87 1012.49 854.87 1012.49 832.36 1012.49 832.36 1034.99 832.36 1080 854.87 1080 854.87 1057.5 854.87 1034.99"/><rect class="cls-3" x="697.34" y="899.97" width="22.5" height="22.5"/><polygon class="cls-3" points="584.82 1034.99 584.82 1012.49 584.82 899.97 562.32 899.97 562.32 1034.99 562.32 1057.5 584.82 1057.5 719.84 1057.5 719.84 1034.99 607.33 1034.99 584.82 1034.99"/><polygon class="cls-3" points="629.83 989.99 629.83 967.48 629.83 899.97 607.33 899.97 607.33 989.99 607.33 1012.49 629.83 1012.49 719.84 1012.49 719.84 989.99 652.33 989.99 629.83 989.99"/><polygon class="cls-3" points="674.84 944.98 674.84 922.47 674.84 899.97 652.33 899.97 652.33 944.98 652.33 967.48 674.84 967.48 719.84 967.48 719.84 944.98 697.34 944.98 674.84 944.98"/><rect class="cls-3" x="517.31" y="1057.5" width="22.5" height="22.5"/><polygon class="cls-3" points="404.79 944.98 427.3 944.98 539.81 944.98 539.81 922.47 404.79 922.47 382.29 922.47 382.29 944.98 382.29 1080 404.79 1080 404.79 967.48 404.79 944.98"/><polygon class="cls-3" points="449.8 989.99 472.3 989.99 539.81 989.99 539.81 967.48 449.8 967.48 427.3 967.48 427.3 989.99 427.3 1080 449.8 1080 449.8 1012.49 449.8 989.99"/><polygon class="cls-3" points="494.81 1034.99 517.31 1034.99 539.81 1034.99 539.81 1012.49 494.81 1012.49 472.3 1012.49 472.3 1034.99 472.3 1080 494.81 1080 494.81 1057.5 494.81 1034.99"/><rect class="cls-3" x="337.28" y="899.97" width="22.5" height="22.5"/><polygon class="cls-3" points="224.76 1034.99 224.76 1012.49 224.76 899.97 202.26 899.97 202.26 1034.99 202.26 1057.5 224.76 1057.5 359.78 1057.5 359.78 1034.99 247.26 1034.99 224.76 1034.99"/><polygon class="cls-3" points="269.77 989.99 269.77 967.48 269.77 899.97 247.26 899.97 247.26 989.99 247.26 1012.49 269.77 1012.49 359.78 1012.49 359.78 989.99 292.27 989.99 269.77 989.99"/><polygon class="cls-3" points="314.78 944.98 314.78 922.47 314.78 899.97 292.27 899.97 292.27 944.98 292.27 967.48 314.78 967.48 359.78 967.48 359.78 944.98 337.28 944.98 314.78 944.98"/><rect class="cls-3" x="157.25" y="1057.5" width="22.5" height="22.5"/><polygon class="cls-3" points="44.73 944.98 67.23 944.98 179.75 944.98 179.75 922.47 44.73 922.47 22.23 922.47 22.23 944.98 22.23 1080 44.73 1080 44.73 967.48 44.73 944.98"/><polygon class="cls-3" points="89.74 989.99 112.24 989.99 179.75 989.99 179.75 967.48 89.74 967.48 67.23 967.48 67.23 989.99 67.23 1080 89.74 1080 89.74 1012.49 89.74 989.99"/><polygon class="cls-3" points="134.75 1034.99 157.25 1034.99 179.75 1034.99 179.75 1012.49 134.75 1012.49 112.24 1012.49 112.24 1034.99 112.24 1080 134.75 1080 134.75 1057.5 134.75 1034.99"/></g></svg>