<svg id="Layer_1" data-name="Layer 1" xmlns="http://www.w3.org/2000/svg" xmlns:xlink="http://www.w3.org/1999/xlink" viewBox="0 0 1080 1080"><defs><style>.cls-1{fill:none;}.cls-2{fill:#292929;}.cls-3{clip-path:url(#clip-path);}.cls-4{fill:#93cfa2;}</style><clipPath id="clip-path"><rect class="cls-1" x="-1115" width="1080" height="1080"/></clipPath></defs><title>LIMI_Pattern</title><rect class="cls-2" width="1080" height="1080"/><g class="cls-3"><polygon class="cls-4" points="204.94 610.91 284.79 690.76 284.79 673.98 213.33 602.52 204.94 610.91"/><polygon class="cls-4" points="224.57 591.29 284.79 651.51 284.79 634.73 232.96 582.9 224.57 591.29"/><polygon class="cls-4" points="174.65 641.2 166.26 649.6 237.72 721.05 237.72 721.05 166.26 792.51 174.65 800.9 254.5 721.05 254.5 721.05 254.5 721.05 174.65 641.2"/><polygon class="cls-4" points="185.6 630.26 276.4 721.05 276.4 721.05 185.6 811.85 193.99 820.24 284.79 729.45 284.79 721.05 284.79 712.66 193.99 621.86 185.6 630.26"/><polygon class="cls-4" points="213.33 476.73 284.79 405.27 284.79 388.49 204.94 468.34 213.33 476.73"/><polygon class="cls-4" points="232.96 496.36 284.79 444.53 284.79 427.74 224.57 487.96 232.96 496.36"/><polygon class="cls-4" points="276.23 539.63 243.62 572.23 284.79 613.4 284.79 596.62 260.41 572.23 284.62 548.02 284.79 548.19 284.79 547.85 284.79 531.4 284.79 531.07 284.62 531.24 260.41 507.02 284.79 482.63 284.79 465.85 243.62 507.02 276.23 539.63"/><polygon class="cls-4" points="-28.32 429.49 51.53 509.34 131.38 429.49 122.99 421.1 51.53 492.55 -19.93 421.1 -28.32 429.49"/><polygon class="cls-4" points="-8.69 409.86 51.53 470.09 111.75 409.86 103.36 401.47 51.53 453.3 -0.3 401.47 -8.69 409.86"/><path class="cls-4" d="M10.36,390.81,51.53,432,92.7,390.81,60.09,358.2,92.7,325.6,51.53,284.43,10.36,325.6,43,358.2ZM27.15,325.6l24.38-24.39L75.91,325.6,51.7,349.81l-.17-.17-.17.17Zm48.76,65.21L51.53,415.19,27.15,390.81l24.21-24.22.17.17.17-.17Z"/><polygon class="cls-4" points="21.24 539.63 -58.61 459.78 -67 468.17 4.46 539.63 -67 611.09 -58.61 619.48 21.24 539.63"/><polygon class="cls-4" points="150.72 630.42 59.92 539.63 150.72 448.83 142.33 440.44 51.53 531.23 -39.27 440.44 -47.66 448.83 43.14 539.63 -47.66 630.42 -39.27 638.82 51.53 548.02 142.33 638.82 150.72 630.42"/><polygon class="cls-4" points="98.6 539.63 170.06 468.17 161.67 459.78 81.82 539.63 161.67 619.48 170.06 611.09 98.6 539.63"/><polygon class="cls-4" points="121.07 539.63 181.29 599.85 189.69 591.46 137.86 539.63 189.69 487.8 181.29 479.4 121.07 539.63"/><path class="cls-4" d="M241.52,539.63l-41.17-41.17-41.17,41.17,41.17,41.16Zm-41.17-24.39,24.38,24.39L200.35,564,176,539.63Z"/><polygon class="cls-4" points="131.38 649.76 51.53 569.91 -28.32 649.76 -19.93 658.16 51.53 586.7 122.99 658.16 131.38 649.76"/><polygon class="cls-4" points="111.75 669.39 51.53 609.17 -8.69 669.39 -0.3 677.78 51.53 625.95 103.36 677.78 111.75 669.39"/><path class="cls-4" d="M51.53,647.28,10.36,688.45,43,721.05,10.36,753.66l41.17,41.17L92.7,753.66,60.09,721.05l32.61-32.6ZM75.91,753.66,51.53,778.05,27.15,753.66l24.21-24.21.17.16.17-.16Zm-24.21-41-.17-.17-.17.17L27.15,688.45l24.38-24.39,24.38,24.39Z"/><polygon class="cls-4" points="204.94 973.76 284.79 1053.62 284.79 1036.83 213.33 965.37 204.94 973.76"/><polygon class="cls-4" points="224.57 954.14 284.79 1014.36 284.79 997.58 232.96 945.75 224.57 954.14"/><polygon class="cls-4" points="166.26 1012.45 237.72 1083.9 237.72 1083.9 254.5 1083.9 254.5 1083.9 174.65 1004.05 166.26 1012.45"/><polygon class="cls-4" points="146.63 1032.08 198.47 1083.9 198.47 1083.9 215.25 1083.9 215.25 1083.9 155.03 1023.68 146.63 1032.08"/><polygon class="cls-4" points="94.8 1083.9 111.59 1083.9 135.97 1059.52 160.36 1083.9 177.14 1083.9 135.97 1042.73 94.8 1083.9"/><polygon class="cls-4" points="185.6 993.11 276.4 1083.9 276.4 1083.9 284.79 1083.9 284.79 1075.51 193.99 984.71 185.6 993.11"/><polygon class="cls-4" points="-74.08 1083.9 -57.3 1083.9 -32.91 1059.52 -8.53 1083.9 8.26 1083.9 -32.91 1042.73 -74.08 1083.9"/><polygon class="cls-4" points="215.25 721.05 215.25 721.05 155.03 660.83 146.63 669.23 198.47 721.05 198.47 721.05 146.63 772.88 155.03 781.27 215.25 721.05"/><path class="cls-4" d="M177.14,721.05,136,679.89,94.8,721.05,136,762.22ZM136,696.67l24.39,24.38L136,745.44l-24.38-24.39Z"/><polygon class="cls-4" points="213.33 839.58 284.79 768.13 284.79 751.34 204.94 831.19 213.33 839.58"/><polygon class="cls-4" points="232.96 859.21 284.79 807.38 284.79 790.59 224.57 850.82 232.96 859.21"/><polygon class="cls-4" points="276.23 902.48 243.62 935.08 284.79 976.25 284.79 959.47 260.41 935.08 284.62 910.87 284.79 911.04 284.79 910.7 284.79 894.25 284.79 893.92 284.62 894.09 260.41 869.87 284.79 845.49 284.79 828.7 243.62 869.87 276.23 902.48"/><polygon class="cls-4" points="131.38 792.34 122.99 783.95 51.53 855.4 -19.93 783.95 -28.32 792.34 51.53 872.19 131.38 792.34"/><polygon class="cls-4" points="-0.3 764.32 -8.69 772.72 51.53 832.94 111.75 772.72 103.36 764.32 51.53 816.15 -0.3 764.32"/><polygon class="cls-4" points="21.24 902.48 -58.61 822.63 -67 831.02 4.46 902.48 -67 973.93 -58.61 982.33 21.24 902.48"/><polygon class="cls-4" points="150.72 993.27 59.92 902.48 150.72 811.68 142.33 803.29 51.53 894.09 -39.27 803.29 -47.66 811.68 43.14 902.48 -47.66 993.27 -39.27 1001.67 51.53 910.87 142.33 1001.67 150.72 993.27"/><polygon class="cls-4" points="170.06 973.93 98.6 902.48 170.06 831.02 161.67 822.63 81.82 902.48 161.67 982.33 170.06 973.93"/><polygon class="cls-4" points="121.07 902.48 181.29 962.7 189.69 954.31 137.86 902.48 189.69 850.65 181.29 842.26 121.07 902.48"/><path class="cls-4" d="M241.52,902.48l-41.17-41.17-41.17,41.17,41.17,41.16Zm-41.17-24.39,24.38,24.39-24.38,24.38L176,902.48Z"/><polygon class="cls-4" points="131.38 1012.62 51.53 932.77 -28.32 1012.62 -19.93 1021.01 51.53 949.55 122.99 1021.01 131.38 1012.62"/><polygon class="cls-4" points="-8.69 1032.24 -0.3 1040.63 51.53 988.8 103.36 1040.63 111.75 1032.24 51.53 972.02 -8.69 1032.24"/><path class="cls-4" d="M10.36,1051.3,43,1083.9H60.09l32.61-32.6-41.17-41.17Zm41.34,24.21-.17-.17-.17.17L27.15,1051.3l24.38-24.39,24.38,24.39Z"/><path class="cls-4" d="M8.26,721.05l-41.17-41.16-41.17,41.16,41.17,41.17Zm-41.17-24.38,24.38,24.38-24.38,24.39L-57.3,721.05Z"/><polygon class="cls-4" points="204.94 248.06 284.79 327.91 284.79 311.13 213.33 239.67 204.94 248.06"/><polygon class="cls-4" points="224.57 228.44 284.79 288.66 284.79 271.88 232.96 220.05 224.57 228.44"/><polygon class="cls-4" points="174.65 278.35 166.26 286.74 237.72 358.2 237.72 358.2 166.26 429.66 174.65 438.05 254.5 358.2 254.5 358.2 254.5 358.2 174.65 278.35"/><polygon class="cls-4" points="215.25 358.2 155.03 297.98 146.63 306.37 198.47 358.2 198.47 358.2 146.63 410.03 155.03 418.42 215.25 358.2 215.25 358.2"/><path class="cls-4" d="M136,317,94.8,358.2,136,399.37l41.17-41.17Zm0,65.55L111.59,358.2,136,333.82l24.39,24.38Z"/><polygon class="cls-4" points="185.6 267.4 276.4 358.2 276.4 358.2 185.6 449 193.99 457.39 284.79 366.59 284.79 358.2 284.79 349.81 193.99 259.01 185.6 267.4"/><path class="cls-4" d="M-74.08,358.2l41.17,41.17L8.26,358.2-32.91,317Zm41.17,24.38L-57.3,358.2l24.39-24.38L-8.53,358.2Z"/><polygon class="cls-4" points="174.65 75.2 254.5 -4.65 237.72 -4.65 166.26 66.81 174.65 75.2"/><polygon class="cls-4" points="155.03 55.57 215.25 -4.65 198.47 -4.65 146.63 47.18 155.03 55.57"/><polygon class="cls-4" points="177.14 -4.65 160.36 -4.65 135.97 19.73 111.59 -4.65 94.8 -4.65 135.97 36.52 177.14 -4.65"/><polygon class="cls-4" points="276.4 -4.65 185.6 86.15 193.99 94.54 284.79 3.74 284.79 -4.65 276.4 -4.65"/><polygon class="cls-4" points="213.33 113.88 284.79 42.42 284.79 25.64 204.94 105.49 213.33 113.88"/><polygon class="cls-4" points="232.96 133.51 284.79 81.68 284.79 64.89 224.57 125.11 232.96 133.51"/><polygon class="cls-4" points="276.23 176.78 243.62 209.38 284.79 250.55 284.79 233.77 260.41 209.38 284.62 185.17 284.79 185.34 284.79 185 284.79 168.55 284.79 168.22 284.62 168.38 260.41 144.17 284.79 119.78 284.79 103 243.62 144.17 276.23 176.78"/><polygon class="cls-4" points="-28.32 66.64 51.53 146.49 131.38 66.64 122.99 58.25 51.53 129.7 -19.93 58.25 -28.32 66.64"/><polygon class="cls-4" points="111.75 47.01 103.36 38.62 51.53 90.45 -0.3 38.62 -8.69 47.01 51.53 107.23 111.75 47.01"/><path class="cls-4" d="M92.7,28,60.09-4.65H43L10.36,28,51.53,69.13ZM51.36,3.74l.17.17.17-.17L75.91,28,51.53,52.34,27.15,28Z"/><polygon class="cls-4" points="-67 105.32 4.46 176.78 -67 248.23 -58.61 256.63 21.24 176.78 -58.61 96.93 -67 105.32"/><polygon class="cls-4" points="-47.66 85.98 43.14 176.78 -47.66 267.57 -39.27 275.96 51.53 185.17 142.33 275.96 150.72 267.57 59.92 176.78 150.72 85.98 142.33 77.59 51.53 168.38 -39.27 77.59 -47.66 85.98"/><polygon class="cls-4" points="98.6 176.78 170.06 105.32 161.67 96.93 81.82 176.78 161.67 256.63 170.06 248.23 98.6 176.78"/><polygon class="cls-4" points="121.07 176.78 181.29 237 189.69 228.6 137.86 176.78 189.69 124.94 181.29 116.55 121.07 176.78"/><path class="cls-4" d="M241.52,176.78l-41.17-41.17-41.17,41.17,41.17,41.16Zm-41.17-24.39,24.38,24.39-24.38,24.38L176,176.78Z"/><polygon class="cls-4" points="-28.32 286.91 -19.93 295.31 51.53 223.85 122.99 295.31 131.38 286.91 51.53 207.06 -28.32 286.91"/><polygon class="cls-4" points="103.36 314.93 111.75 306.54 51.53 246.32 -8.69 306.54 -0.3 314.93 51.53 263.1 103.36 314.93"/><polygon class="cls-4" points="8.26 -4.65 -8.53 -4.65 -32.91 19.73 -57.3 -4.65 -74.08 -4.65 -32.91 36.52 8.26 -4.65"/></g><path class="cls-4" d="M280.5,60.75a15.12,15.12,0,0,0,7.32-1.89L393.27,0h-61.6L280.5,28.56,229.33,0H167.74L273.19,58.86A15.06,15.06,0,0,0,280.5,60.75Z"/><path class="cls-4" d="M644.31,60.75a15.06,15.06,0,0,0,7.31-1.89L757.07,0H695.48L644.31,28.56,593.13,0H531.54L637,58.86A15.09,15.09,0,0,0,644.31,60.75Z"/><polygon class="cls-4" points="-0.13 0 -0.13 16.52 29.47 0 -0.13 0"/><path class="cls-4" d="M1059.28,0l-51.17,28.56L956.94,0h-61.6l105.45,58.86a15.1,15.1,0,0,0,14.63,0l75.85-42.34V0Z"/><path class="cls-4" d="M861.51,0H790.9L644.31,81.81,497.71,0H427.1L280.5,81.81,133.91,0H63.3L-.13,35.4V69.78L98.6,14.68l171.24,95.56a15,15,0,0,0,2.89,2.13L455.09,214.14a15,15,0,0,0,14.63,0l72.5-40.46,71.75,40L462.41,298.31,291.17,202.74a15.3,15.3,0,0,0-2.89-2.13L105.92,98.84a15,15,0,0,0-14.63,0L18.79,139.3-.13,128.74v34.38l91.42,51a15,15,0,0,0,14.63,0l72.5-40.46,71.75,40L98.6,298.31-.13,243.2v34.38l91.42,51a15,15,0,0,0,14.63,0L280.5,231.16,455.09,328.6a15,15,0,0,0,14.63,0l174.59-97.44L818.9,328.6a15,15,0,0,0,14.62,0l174.59-97.44,83.16,46.42V243.2l-72.5-40.46a15,15,0,0,0-2.89-2.13L833.52,98.84a15,15,0,0,0-14.62,0L746.39,139.3l-71.75-40L826.2,14.68l171.25,95.56a14.92,14.92,0,0,0,2.88,2.13l90.94,50.75V128.74l-52.82-29.48,52.82-29.48V35.4l-83.16,46.41ZM98.6,183.85l-49-27.36,49-27.36,49,27.36Zm363.81,0-49-27.36,49-27.36,49,27.36ZM826.2,129.13l49,27.36-49,27.36-49-27.36Zm-7.3,85a15,15,0,0,0,14.62,0L906,173.68l71.75,40L826.21,298.31,655,202.74a15.3,15.3,0,0,0-2.89-2.13L469.72,98.84a15,15,0,0,0-14.63,0l-72.5,40.46-71.75-40L462.41,14.68l171.23,95.56a15.3,15.3,0,0,0,2.89,2.13Z"/><path class="cls-4" d="M1000.79,254.13,826.21,351.56,651.62,254.13a15,15,0,0,0-14.63,0L462.41,351.56,287.82,254.13a15,15,0,0,0-14.63,0L98.6,351.56-.13,296.46v34.37L87.94,380a15,15,0,0,0,2.89,2.13L273.19,483.89a15,15,0,0,0,14.63,0l72.5-40.46,71.75,40L280.5,568.06,109.27,472.49a15.3,15.3,0,0,0-2.89-2.13L-.13,410.92V445.3l68.4,38.17L-.13,521.64V556L98.6,500.91l174.59,97.44a15,15,0,0,0,14.63,0l174.59-97.44L637,598.35a15,15,0,0,0,14.63,0l174.59-97.44,174.58,97.44a15,15,0,0,0,14.63,0L1091.27,556V521.64l-83.16,46.42L836.87,472.49a15.3,15.3,0,0,0-2.89-2.13L651.62,368.59a15,15,0,0,0-14.63,0l-72.5,40.46-71.75-40L644.3,284.42,815.55,380a14.92,14.92,0,0,0,2.88,2.13l182.36,101.77a15,15,0,0,0,14.63,0l72.5-40.46,3.35,1.87V410.92l-75.85-42.33a15,15,0,0,0-14.63,0l-72.5,40.46-71.75-40,151.57-84.59,83.16,46.41V296.46l-75.85-42.33A15,15,0,0,0,1000.79,254.13ZM280.5,453.6l-49-27.36,49-27.36,49,27.36Zm363.8-54.72,49,27.36-49,27.36-49-27.36Zm-7.31,85a15,15,0,0,0,14.63,0l72.5-40.46,71.75,40L644.31,568.06,473.07,472.49a15.3,15.3,0,0,0-2.89-2.13L287.82,368.59a15,15,0,0,0-14.63,0l-72.5,40.46-71.75-40L280.5,284.42,451.74,380a15.3,15.3,0,0,0,2.89,2.13Zm371.12-85,49,27.36-49,27.36-49-27.36Z"/><path class="cls-4" d="M833.52,523.88a15,15,0,0,0-14.62,0L644.31,621.31,469.72,523.88a15,15,0,0,0-14.63,0L280.5,621.31,105.92,523.88a15,15,0,0,0-14.63,0l-91.42,51v34.38L98.6,554.17l171.24,95.58a14.58,14.58,0,0,0,2.89,2.13L455.09,753.65a15,15,0,0,0,14.63,0l72.5-40.45,71.75,40L462.41,837.83,291.17,742.26a15.3,15.3,0,0,0-2.89-2.13L105.92,638.35a15,15,0,0,0-14.63,0l-72.5,40.47L-.13,668.26v34.37l91.42,51a15,15,0,0,0,14.63,0l72.5-40.45,71.75,40L98.6,837.83-.13,782.72V817.1l91.42,51a15,15,0,0,0,14.63,0L280.5,770.68l174.59,97.44a15,15,0,0,0,14.63,0l174.59-97.44L818.9,868.12a15,15,0,0,0,14.62,0l174.59-97.44,83.16,46.42V782.72l-72.5-40.46a15,15,0,0,0-2.89-2.13L833.52,638.35a15,15,0,0,0-14.62,0l-72.51,40.47-71.75-40.05,151.56-84.6,171.25,95.58a14.51,14.51,0,0,0,2.88,2.13l90.94,50.75V668.26l-52.82-29.49,52.82-29.48V574.9l-83.16,46.41ZM98.6,723.36,49.59,696l49-27.35,49,27.35Zm363.81,0-49-27.35,49-27.35,49,27.35Zm363.79-54.7,49,27.35-49,27.35-49-27.35Zm-7.3,85a14.94,14.94,0,0,0,14.62,0L906,713.2l71.75,40L826.21,837.83,655,742.26a15.3,15.3,0,0,0-2.89-2.13L469.72,638.35a15,15,0,0,0-14.63,0l-72.5,40.47-71.75-40.05,151.57-84.6,171.23,95.58a14.88,14.88,0,0,0,2.89,2.13Z"/><path class="cls-4" d="M106.38,1009.88-.13,950.44v34.38L68.27,1023l-68.4,38.17V1079H29.5l69.1-38.56L167.7,1079h61.6l-120-67A15.35,15.35,0,0,0,106.38,1009.88Z"/><polygon class="cls-4" points="1091.27 1079 1091.27 1061.16 1059.31 1079 1091.27 1079"/><path class="cls-4" d="M1000.79,793.65,826.21,891.08,651.62,793.65a15,15,0,0,0-14.63,0L462.41,891.08,287.82,793.65a15,15,0,0,0-14.63,0L98.6,891.08-.13,836v34.37L87.94,919.5a14.58,14.58,0,0,0,2.89,2.13L273.19,1023.4a15,15,0,0,0,14.63,0L360.32,983l71.75,40-100.36,56H393.3l69.11-38.56,69.1,38.56H593.1l-120-67a15.35,15.35,0,0,0-2.89-2.14L287.82,908.11a15,15,0,0,0-14.63,0l-72.5,40.46-71.75-40.05L280.5,823.94,451.74,919.5a14.88,14.88,0,0,0,2.89,2.13L637,1023.4a15,15,0,0,0,14.63,0L724.12,983l71.75,40-100.36,56H757.1l69.11-38.56,69.1,38.56H956.9l-120-67a15.35,15.35,0,0,0-2.89-2.14L651.62,908.11a15,15,0,0,0-14.63,0l-72.5,40.46-71.75-40.05L644.3,823.94,815.55,919.5a14.51,14.51,0,0,0,2.88,2.13l182.36,101.77a15,15,0,0,0,14.63,0l72.5-40.45,3.35,1.87V950.44l-75.85-42.33a15,15,0,0,0-14.63,0l-72.5,40.46-71.75-40.05,151.57-84.58,83.16,46.41V836l-75.85-42.33A15,15,0,0,0,1000.79,793.65ZM280.5,938.4l49,27.35-49,27.36-49-27.36Zm363.8,0,49,27.35-49,27.36-49-27.36Zm363.81,0,49,27.35-49,27.36-49-27.36Z"/><path class="cls-4" d="M91.29,1063.4l-28,15.6h70.55l-28-15.6A15,15,0,0,0,91.29,1063.4Z"/><path class="cls-4" d="M455.09,1063.4l-28,15.6h70.54l-27.95-15.6A15,15,0,0,0,455.09,1063.4Z"/><path class="cls-4" d="M818.9,1063.4l-28,15.6h70.55l-28-15.6A15,15,0,0,0,818.9,1063.4Z"/></svg>