<svg id="Layer_1" data-name="Layer 1" xmlns="http://www.w3.org/2000/svg" xmlns:xlink="http://www.w3.org/1999/xlink" viewBox="0 0 1080 1080"><defs><style>.cls-1{fill:none;}.cls-2{clip-path:url(#clip-path);}.cls-3{fill:#93cfa2;}.cls-4{clip-path:url(#clip-path-2);}</style><clipPath id="clip-path"><rect class="cls-1" x="-1100.19" y="0.34" width="1079.66" height="1079.66"/></clipPath><clipPath id="clip-path-2"><rect class="cls-1" width="1080" height="1080"/></clipPath></defs><title>LIMI_Pattern</title><g class="cls-2"><path class="cls-3" d="M-1118.09-8.2V1093.5H440V-8.2ZM423.94.35V111.61L381.05,87V.35ZM-890.44,12.5l42.89,24.65V148.91l-42.89,24.65v1.35l-42.49-24.43V38.73l42.49-24.43Zm-219.06,1.58,42.89,24.65V150.48l-42.89,24.66Zm0,251.35,42.89,24.66V401.84l-42.89,24.65Zm0,251.36,42.89,24.65V653.19l-42.89,24.66Zm0,251.35,42.89,24.66V904.55l-42.89,24.65ZM431.4,1085H-1109.5V1019.5l42.89,24.65V1085h24.34v-54.72l-6.08-3.5L-1103,995.31h0l-6.43-3.7V957.09l6.43-3.7h0l54.67-31.42,6.08-3.5V778.87l-6.08-3.5L-1103,744h0l-6.43-3.7V705.73l6.43-3.69h0l54.67-31.42,6.08-3.5V527.51l-6.08-3.49L-1103,492.6h0l-6.43-3.7V454.38l6.43-3.7h0l54.67-31.42,6.08-3.5V276.16l-6.08-3.5L-1103,241.24h0l-6.43-3.7V203l6.43-3.69h0l54.67-31.43,6.08-3.5V24.8l-6.08-3.49-36.47-21h170.1l-36.47,21-6.09,3.49V164.4l6.09,3.5,54.66,31.43h0l6,3.47V201l42.89,24.65V337.43l-42.89,24.65V390l6.44-3.7h0l54.67-31.42,6.09-3.5V211.75l-6.09-3.5-36.47-21,36.47-21,6.09-3.5V23.23l-6.09-3.5L-863,.35H-698.4l-33.73,19.38-6.08,3.5v139.6l6.08,3.5,36.47,21-36.47,21-6.08,3.5v139.6l6.08,3.5,54.67,31.42h.05l6,3.47,42.5,24.43V525.92l-42.5,24.42v27.89l6-3.47h.05l54.67-31.42,6.08-3.5V400.24l-6.08-3.5-54.67-31.42h-.05l-6-3.47-42.49-24.42V225.67l42.49-24.42V173.33l-42.49-24.42V37.15l42.49-24.42V.35h42.5V86l-42.5,24.43v27.91l42.5,24.43V274.56L-671.38,299v27.89l6-3.47h.05L-610.62,292l6.08-3.49V148.88l-6.08-3.49-36.47-21,36.47-21,6.08-3.5V.35h85V100l6.09,3.5,36.47,21-36.47,21-6.09,3.49V288.49l6.09,3.49,54.67,31.43h0l6.44,3.69,42.89,24.66V463.51l-42.89,24.65v27.89l6.43-3.7h.05l54.67-31.42,6.08-3.5V337.83l-6.08-3.49-54.67-31.42h-.05l-6.43-3.7-42.89-24.66V162.81l42.89-24.65V110.7L-495.2,86V.35h85.78V23.64l-42.89,24.65V75.75l42.89,24.65V212.16l-42.89,24.65V264.7l6.43-3.7h.05l54.67-31.42,6.08-3.5V86.48l-6.08-3.5-36.47-21,36.47-21,6.08-3.5V.35h85V37.56l6.09,3.5,36.47,21L-294,83l-6.09,3.5v139.6l6.09,3.5L-239.33,261h0l6,3.47V236.58l-42.49-24.42V100.4L-233.25,76V48.06l-42.49-24.42V.35h85V86.5l-42.5,24.43v27.91l42.5,24.43V275l-42.5,24.42-6,3.48h0L-294,334.34l-6.09,3.49v139.6l6.09,3.5,54.67,31.42h0l6,3.47V487.94l-42.49-24.43V351.76l42.49-24.43,6-3.47h.05l54.66-31.42,6.09-3.5V149.34l-6.09-3.5-36.46-21,36.46-21,6.09-3.49V.35h85V100.43l6.09,3.49,36.46,21-36.46,21-6.09,3.5v139.6l6.09,3.5,54.66,31.42h.05l6.44,3.7,42.89,24.65V464l-42.89,24.65v27.89l6.43-3.7h0L47,481.39l6.08-3.5V338.29L47,334.79-7.7,303.37h0l-6.43-3.7L-57.08,275V163.27l42.9-24.66V111.15L-57.08,86.5V.35H28.71V24.09L-14.18,48.75V76.2l42.89,24.66V212.61l-42.89,24.66v27.88l6.43-3.7h0L47,230l6.08-3.5V86.93L47,83.44l-36.47-21L47,41.51,53.05,38V.35h85V38l6.09,3.49,36.47,21-36.47,21L138,86.93v139.6l6.09,3.5,54.66,31.42h.05l6,3.47V237l-42.49-24.43V100.86l42.49-24.43V48.52L162.39,24.09V.35h85V87l-42.49,24.42v27.91l42.49,24.43V275.47L204.88,299.9l-6,3.47h-.05l-54.66,31.42-6.09,3.5v139.6l6.09,3.5,54.66,31.42h.05l6,3.47V488.39L162.39,464V352.21l42.49-24.42,6-3.47H211l54.66-31.42,6.09-3.5V149.8l-6.09-3.5-36.47-21,36.47-21,6.09-3.5V.35h85V100.88l6.08,3.5,36.47,21-36.47,21-6.08,3.5V289.4l6.08,3.5,54.67,31.42h.05l6.43,3.7v34.52l-6.43,3.69h-.05l-54.67,31.42-6.08,3.5v139.6l6.08,3.5,54.67,31.42h.05l6.43,3.7v34.52l-6.43,3.7h-.05L362.79,649l-6.08,3.5v139.6l6.08,3.5L417.46,827h.05l6.43,3.7v34.52l-6.43,3.7h-.05l-54.67,31.42-6.08,3.49v139.6l6.08,3.5,54.67,31.42h.05l6.43,3.7V1085h0V.35h7.46Zm-7.46-945.88V300.13l-42.89-24.66V163.72Zm0,251.35V551.48l-42.89-24.65V415.08Zm0,251.36V802.84l-42.89-24.66V666.43Zm0,251.35v161.06l-42.89-24.65V917.79Z"/><polygon class="cls-3" points="-81.42 407.66 -81.42 470.5 -81.42 533.34 -81.42 540.3 -75.33 543.8 -20.67 575.22 -20.62 575.22 -14.18 578.91 28.71 603.57 28.71 659.45 28.71 715.32 -14.18 739.98 -14.18 767.86 -7.75 764.16 -7.7 764.16 46.97 732.75 53.05 729.24 53.05 722.28 53.05 659.45 53.05 596.61 53.05 589.64 46.97 586.15 -7.7 554.73 -7.75 554.73 -14.18 551.03 -57.08 526.37 -57.08 470.5 -57.08 414.62 -14.18 389.97 -14.18 362.08 -20.62 365.78 -20.67 365.78 -75.33 397.2 -81.42 400.7 -81.42 407.66"/><polygon class="cls-3" points="210.92 1078.38 210.97 1078.38 265.63 1046.96 271.72 1043.46 271.72 1036.5 271.72 973.66 271.72 910.83 271.72 903.86 265.63 900.37 210.97 868.95 210.92 868.95 204.88 865.47 204.88 893.36 247.37 917.79 247.37 973.66 247.37 1029.54 204.88 1053.97 198.84 1057.44 198.79 1057.44 150.93 1084.95 199.5 1084.95 204.88 1081.85 210.92 1078.38"/><polygon class="cls-3" points="-7.75 1057.44 -14.18 1053.74 -57.08 1029.08 -57.08 973.21 -57.08 917.33 -14.18 892.68 -14.18 864.79 -20.62 868.49 -20.67 868.49 -75.33 899.91 -81.42 903.41 -81.42 910.37 -81.42 973.21 -81.42 1036.05 -81.42 1043.01 -75.33 1046.51 -20.67 1077.93 -20.62 1077.93 -14.18 1081.63 -8.41 1084.95 40.16 1084.95 -7.7 1057.44 -7.75 1057.44"/><polygon class="cls-3" points="198.79 1015.52 198.84 1015.52 204.88 1018.99 204.88 991.1 162.39 966.68 162.39 910.8 162.39 854.92 204.88 830.5 210.92 827.03 210.97 827.03 265.63 795.61 271.72 792.11 271.72 785.15 271.72 722.31 271.72 659.47 271.72 652.51 265.63 649.01 210.97 617.59 210.92 617.59 204.88 614.12 204.88 642.01 247.37 666.43 247.37 722.31 247.37 778.18 204.88 802.61 198.84 806.08 198.79 806.08 144.13 837.5 138.04 841 138.04 847.96 138.04 910.8 138.04 973.64 138.04 980.6 144.13 984.1 198.79 1015.52"/><polygon class="cls-3" points="28.71 966.68 -14.18 991.33 -14.18 1019.22 -7.75 1015.52 -7.7 1015.52 46.97 984.1 53.05 980.6 53.05 973.64 53.05 910.8 53.05 847.96 53.05 841 46.97 837.5 -7.7 806.08 -7.75 806.08 -14.18 802.38 -57.08 777.73 -57.08 721.85 -57.08 665.98 -14.18 641.32 -14.18 613.44 -20.62 617.13 -20.67 617.13 -75.33 648.55 -81.42 652.05 -81.42 659.01 -81.42 721.85 -81.42 784.69 -81.42 791.65 -75.33 795.15 -20.67 826.57 -20.62 826.57 -14.18 830.27 28.71 854.92 28.71 910.8 28.71 966.68"/><polygon class="cls-3" points="198.79 764.16 198.84 764.16 204.88 767.63 204.88 739.75 162.39 715.32 162.39 659.45 162.39 603.57 204.88 579.14 210.92 575.67 210.97 575.67 265.63 544.25 271.72 540.75 271.72 533.79 271.72 470.95 271.72 408.11 271.72 401.15 265.63 397.65 210.97 366.23 210.92 366.23 204.88 362.76 204.88 390.65 247.37 415.08 247.37 470.95 247.37 526.83 204.88 551.26 198.84 554.73 198.79 554.73 144.13 586.15 138.04 589.64 138.04 596.61 138.04 659.45 138.04 722.28 138.04 729.24 144.13 732.75 198.79 764.16"/></g><g class="cls-4"><polygon class="cls-3" points="1013.12 610.91 1004.73 602.52 933.27 673.98 861.81 602.52 853.42 610.91 933.27 690.76 1013.12 610.91"/><path class="cls-3" d="M933.27,465.85,892.1,507l32.61,32.61-32.61,32.6,41.17,41.17,41.17-41.17-32.61-32.6L974.44,507Zm24.38,106.38-24.38,24.39-24.38-24.39L933.1,548l.17.17.17-.17Zm-24.21-41-.17-.17-.17.17L908.89,507l24.38-24.38L957.65,507Z"/><polygon class="cls-3" points="1136.24 539.63 1056.39 459.78 1048 468.17 1119.46 539.63 1048 611.09 1056.39 619.48 1136.24 539.63"/><polygon class="cls-3" points="1096.99 539.63 1036.77 479.4 1028.37 487.8 1080.2 539.63 1028.37 591.46 1036.77 599.85 1096.99 539.63"/><path class="cls-3" d="M1058.88,539.63l-41.17-41.17-41.17,41.17,41.17,41.16Zm-41.17-24.39,24.39,24.39L1017.71,564l-24.38-24.38Z"/><polygon class="cls-3" points="1265.72 630.42 1174.92 539.63 1265.72 448.83 1257.33 440.44 1166.53 531.23 1075.73 440.44 1067.34 448.83 1158.14 539.63 1067.34 630.42 1075.73 638.82 1166.53 548.02 1257.33 638.82 1265.72 630.42"/><polygon class="cls-3" points="1013.12 468.34 933.27 388.49 853.42 468.34 861.81 476.73 933.27 405.27 1004.73 476.73 1013.12 468.34"/><polygon class="cls-3" points="993.49 487.96 933.27 427.74 873.05 487.96 881.44 496.36 933.27 444.53 985.1 496.36 993.49 487.96"/><polygon class="cls-3" points="881.44 582.9 873.05 591.29 933.27 651.51 993.49 591.29 985.1 582.9 933.27 634.73 881.44 582.9"/><polygon class="cls-3" points="546.6 610.91 538.2 602.52 466.75 673.98 395.29 602.52 386.9 610.91 466.75 690.76 546.6 610.91"/><path class="cls-3" d="M466.75,465.85,425.58,507l32.6,32.61-32.6,32.6,41.17,41.17,41.16-41.17-32.6-32.6L507.92,507Zm24.38,106.38-24.38,24.39-24.39-24.39L466.58,548l.17.17.16-.17Zm-24.22-41-.16-.17-.17.17L442.36,507l24.39-24.38L491.13,507Z"/><polygon class="cls-3" points="620.16 429.49 700.01 509.34 779.86 429.49 771.47 421.1 700.01 492.55 628.55 421.1 620.16 429.49"/><polygon class="cls-3" points="639.78 409.86 700.01 470.09 760.23 409.86 751.84 401.47 700.01 453.3 648.18 401.47 639.78 409.86"/><path class="cls-3" d="M658.84,390.81,700,432l41.17-41.17L708.57,358.2l32.61-32.6L700,284.43,658.84,325.6l32.61,32.6Zm16.78-65.21L700,301.21l24.38,24.39-24.21,24.21-.17-.17-.17.17Zm48.77,65.21L700,415.19l-24.39-24.38,24.22-24.22.17.17.17-.17Z"/><polygon class="cls-3" points="669.72 539.63 589.87 459.78 581.48 468.17 652.93 539.63 581.48 611.09 589.87 619.48 669.72 539.63"/><polygon class="cls-3" points="630.47 539.63 570.24 479.4 561.85 487.8 613.68 539.63 561.85 591.46 570.24 599.85 630.47 539.63"/><path class="cls-3" d="M592.36,539.63l-41.17-41.17L510,539.63l41.17,41.16Zm-41.17-24.39,24.38,24.39L551.19,564l-24.38-24.38Z"/><polygon class="cls-3" points="799.2 630.42 708.4 539.63 799.2 448.83 790.8 440.44 700.01 531.23 609.21 440.44 600.82 448.83 691.62 539.63 600.82 630.42 609.21 638.82 700.01 548.02 790.8 638.82 799.2 630.42"/><polygon class="cls-3" points="818.54 611.09 747.08 539.63 818.54 468.17 810.14 459.78 730.29 539.63 810.14 619.48 818.54 611.09"/><polygon class="cls-3" points="838.16 591.46 786.33 539.63 838.16 487.8 829.77 479.4 769.55 539.63 829.77 599.85 838.16 591.46"/><path class="cls-3" d="M890,539.63l-41.16-41.17-41.17,41.17,41.17,41.16Zm-41.16-24.39,24.38,24.39L848.83,564l-24.39-24.38Z"/><polygon class="cls-3" points="779.86 649.76 700.01 569.91 620.16 649.76 628.55 658.16 700.01 586.7 771.47 658.16 779.86 649.76"/><polygon class="cls-3" points="760.23 669.39 700.01 609.17 639.78 669.39 648.18 677.78 700.01 625.95 751.84 677.78 760.23 669.39"/><path class="cls-3" d="M700,647.28l-41.17,41.17,32.61,32.6-32.61,32.61L700,794.83l41.17-41.17-32.61-32.61,32.61-32.6Zm24.38,106.38L700,778.05l-24.39-24.39,24.22-24.21.17.16.17-.16Zm-24.21-41-.17-.17-.17.17-24.22-24.21L700,664.06l24.38,24.39Z"/><polygon class="cls-3" points="546.6 468.34 466.75 388.49 386.9 468.34 395.29 476.73 466.75 405.27 538.2 476.73 546.6 468.34"/><polygon class="cls-3" points="526.97 487.96 466.75 427.74 406.52 487.96 414.92 496.36 466.75 444.53 518.58 496.36 526.97 487.96"/><polygon class="cls-3" points="414.92 582.9 406.52 591.29 466.75 651.51 526.97 591.29 518.58 582.9 466.75 634.73 414.92 582.9"/><polygon class="cls-3" points="71.68 602.52 0.22 673.98 0.22 690.76 80.07 610.91 71.68 602.52"/><polygon class="cls-3" points="60.45 591.29 52.05 582.9 0.22 634.73 0.22 634.73 0.22 651.51 0.22 651.51 60.45 591.29"/><polygon class="cls-3" points="8.78 539.63 41.39 507.02 0.22 465.85 0.22 482.63 24.61 507.02 0.39 531.24 0.22 531.07 0.22 531.4 0.22 547.85 0.22 548.19 0.39 548.02 24.61 572.23 0.22 596.62 0.22 613.4 41.39 572.23 8.78 539.63"/><polygon class="cls-3" points="30.51 721.05 110.36 800.9 118.75 792.51 47.3 721.05 47.3 721.05 118.75 649.6 110.36 641.2 30.51 721.05 30.51 721.05"/><polygon class="cls-3" points="69.77 721.05 129.99 781.27 138.38 772.88 86.55 721.05 86.55 721.05 138.38 669.22 129.99 660.83 69.77 721.05 69.77 721.05"/><polygon class="cls-3" points="153.63 429.49 233.49 509.34 313.33 429.49 304.94 421.1 233.49 492.55 162.03 421.1 153.63 429.49"/><polygon class="cls-3" points="173.26 409.86 233.49 470.09 293.71 409.86 285.31 401.47 233.49 453.3 181.65 401.47 173.26 409.86"/><polygon class="cls-3" points="186.41 539.63 114.95 611.09 123.35 619.48 203.2 539.63 123.35 459.78 114.95 468.17 186.41 539.63"/><polygon class="cls-3" points="163.94 539.63 103.72 479.4 95.33 487.8 147.16 539.63 95.33 591.46 103.72 599.85 163.94 539.63"/><path class="cls-3" d="M43.5,539.63l41.17,41.16,41.16-41.16L84.67,498.46ZM84.67,564,60.28,539.63l24.39-24.39,24.38,24.39Z"/><polygon class="cls-3" points="332.67 630.42 241.88 539.63 332.67 448.83 324.28 440.44 233.48 531.23 142.69 440.44 134.3 448.83 225.09 539.63 134.3 630.42 142.69 638.82 233.48 548.02 324.28 638.82 332.67 630.42"/><polygon class="cls-3" points="352.01 611.09 280.56 539.63 352.01 468.17 343.62 459.78 263.77 539.63 343.62 619.48 352.01 611.09"/><polygon class="cls-3" points="371.64 591.46 319.81 539.63 371.64 487.8 363.25 479.4 303.03 539.63 363.25 599.85 371.64 591.46"/><path class="cls-3" d="M423.47,539.63,382.3,498.46l-41.17,41.17,41.17,41.16ZM382.3,515.24l24.39,24.39L382.3,564l-24.38-24.38Z"/><polygon class="cls-3" points="313.33 649.76 233.49 569.91 153.63 649.76 162.03 658.16 233.49 586.7 304.94 658.16 313.33 649.76"/><polygon class="cls-3" points="293.71 669.39 233.49 609.17 173.26 669.39 181.65 677.78 233.49 625.95 285.31 677.78 293.71 669.39"/><path class="cls-3" d="M233.48,647.28l-41.16,41.17,32.6,32.6h0l-32.6,32.61,41.16,41.17,41.17-41.17-32.6-32.61,32.6-32.6Zm24.39,106.38-24.39,24.39L209.1,753.66l24.22-24.21.16.16.17-.16Zm-24.22-41-.17-.17-.16.17L209.1,688.45l24.38-24.39,24.39,24.39Z"/><polygon class="cls-3" points="99.41 449 8.62 358.2 8.62 358.2 99.41 267.4 91.02 259.01 0.22 349.81 0.22 358.2 0.22 366.59 91.02 457.39 99.41 449"/><polygon class="cls-3" points="80.07 468.34 0.22 388.49 0.22 405.27 71.68 476.73 80.07 468.34"/><polygon class="cls-3" points="52.05 496.36 60.45 487.96 0.22 427.74 0.22 427.74 0.22 444.53 0.22 444.53 52.05 496.36"/><polygon class="cls-3" points="1013.12 973.76 1004.73 965.37 933.27 1036.83 861.81 965.37 853.42 973.76 933.27 1053.62 1013.12 973.76"/><path class="cls-3" d="M933.27,828.7,892.1,869.87l32.61,32.61-32.61,32.6,41.17,41.17,41.17-41.17-32.61-32.6,32.61-32.61Zm24.38,106.38-24.38,24.39-24.38-24.39,24.21-24.21.17.17.17-.17Zm-24.21-41-.17-.17-.17.17-24.21-24.22,24.38-24.38,24.38,24.38Z"/><polygon class="cls-3" points="1024.07 984.71 933.27 1075.51 842.47 984.71 834.08 993.11 924.88 1083.9 924.88 1083.9 933.27 1083.9 941.66 1083.9 941.66 1083.9 1032.46 993.11 1024.07 984.71"/><polygon class="cls-3" points="1051.8 1012.45 1043.41 1004.05 963.56 1083.9 963.56 1083.9 980.34 1083.9 980.34 1083.9 1051.8 1012.45"/><polygon class="cls-3" points="1071.42 1032.07 1063.03 1023.68 1002.81 1083.9 1002.81 1083.9 1019.6 1083.9 1019.6 1083.9 1071.42 1032.07"/><polygon class="cls-3" points="1040.92 1083.9 1057.7 1083.9 1082.09 1059.52 1106.47 1083.9 1123.26 1083.9 1082.09 1042.73 1040.92 1083.9"/><polygon class="cls-3" points="1136.24 902.48 1056.39 822.63 1048 831.02 1119.46 902.48 1048 973.93 1056.39 982.33 1136.24 902.48"/><polygon class="cls-3" points="1096.99 902.48 1036.77 842.25 1028.37 850.65 1080.2 902.48 1028.37 954.31 1036.77 962.7 1096.99 902.48"/><path class="cls-3" d="M1058.88,902.48l-41.17-41.17-41.17,41.17,41.17,41.16Zm-41.17-24.39,24.39,24.39-24.39,24.38-24.38-24.38Z"/><polygon class="cls-3" points="1265.72 993.27 1174.92 902.48 1265.72 811.68 1257.33 803.29 1166.53 894.09 1075.73 803.29 1067.34 811.68 1158.14 902.48 1067.34 993.27 1075.73 1001.67 1166.53 910.87 1257.33 1001.67 1265.72 993.27"/><polygon class="cls-3" points="1032.46 811.85 941.66 721.05 941.66 721.05 1032.46 630.26 1024.07 621.86 933.27 712.66 842.47 621.86 834.08 630.26 924.88 721.05 924.88 721.05 834.08 811.85 842.47 820.24 933.27 729.45 1024.07 820.24 1032.46 811.85"/><polygon class="cls-3" points="1051.8 792.51 980.34 721.05 980.34 721.05 1051.8 649.6 1043.41 641.2 963.56 721.05 963.56 721.05 1043.41 800.9 1051.8 792.51"/><polygon class="cls-3" points="1071.42 772.88 1019.6 721.05 1019.6 721.05 1071.42 669.22 1063.03 660.83 1002.81 721.05 1002.81 721.05 1063.03 781.27 1071.42 772.88"/><path class="cls-3" d="M1123.26,721.05l-41.17-41.16-41.17,41.16,41.17,41.17Zm-41.17-24.38,24.38,24.38-24.38,24.39-24.39-24.39Z"/><polygon class="cls-3" points="1013.12 831.19 933.27 751.34 853.42 831.19 861.81 839.58 933.27 768.13 1004.73 839.58 1013.12 831.19"/><polygon class="cls-3" points="993.49 850.82 933.27 790.59 873.05 850.82 881.44 859.21 933.27 807.38 985.1 859.21 993.49 850.82"/><polygon class="cls-3" points="881.44 945.75 873.05 954.14 933.27 1014.36 993.49 954.14 985.1 945.75 933.27 997.58 881.44 945.75"/><polygon class="cls-3" points="814.74 1012.45 886.2 1083.9 886.2 1083.9 902.98 1083.9 902.98 1083.9 823.13 1004.05 814.74 1012.45"/><polygon class="cls-3" points="795.11 1032.08 846.94 1083.9 846.94 1083.9 863.73 1083.9 863.73 1083.9 803.5 1023.68 795.11 1032.08"/><polygon class="cls-3" points="743.28 1083.9 760.07 1083.9 784.45 1059.52 808.84 1083.9 825.62 1083.9 784.45 1042.73 743.28 1083.9"/><polygon class="cls-3" points="546.6 973.76 538.2 965.37 466.75 1036.83 395.29 965.37 386.9 973.76 466.75 1053.62 546.6 973.76"/><path class="cls-3" d="M466.75,828.7l-41.17,41.17,32.6,32.61-32.6,32.6,41.17,41.17,41.16-41.17-32.6-32.6,32.61-32.61Zm24.38,106.38-24.38,24.39-24.39-24.39,24.22-24.21.17.17.16-.17Zm-24.22-41-.16-.17-.17.17-24.22-24.22,24.39-24.38,24.38,24.38Z"/><polygon class="cls-3" points="565.93 993.11 557.54 984.71 466.75 1075.51 375.95 984.71 367.56 993.11 458.35 1083.9 458.35 1083.9 466.75 1083.9 475.14 1083.9 475.14 1083.9 565.93 993.11"/><polygon class="cls-3" points="585.28 1012.45 576.88 1004.05 497.03 1083.9 497.04 1083.9 513.82 1083.9 513.82 1083.9 585.28 1012.45"/><polygon class="cls-3" points="604.9 1032.07 596.51 1023.68 536.29 1083.9 536.29 1083.9 553.07 1083.9 553.07 1083.9 604.9 1032.07"/><polygon class="cls-3" points="574.4 1083.9 591.18 1083.9 615.57 1059.52 639.95 1083.9 656.73 1083.9 615.57 1042.73 574.4 1083.9"/><polygon class="cls-3" points="902.98 721.05 902.98 721.05 902.98 721.05 823.13 641.2 814.74 649.6 886.2 721.05 886.2 721.05 814.74 792.51 823.13 800.9 902.98 721.05"/><polygon class="cls-3" points="863.73 721.05 863.73 721.05 803.5 660.83 795.11 669.23 846.94 721.05 846.94 721.05 795.11 772.88 803.5 781.27 863.73 721.05"/><path class="cls-3" d="M825.62,721.05l-41.17-41.16-41.17,41.16,41.17,41.17Zm-41.17-24.38,24.38,24.38-24.38,24.39-24.38-24.39Z"/><polygon class="cls-3" points="779.86 792.34 771.47 783.95 700.01 855.4 628.55 783.95 620.16 792.34 700.01 872.19 779.86 792.34"/><polygon class="cls-3" points="648.18 764.32 639.78 772.72 700.01 832.94 760.23 772.72 751.84 764.32 700.01 816.15 648.18 764.32"/><polygon class="cls-3" points="669.72 902.48 589.87 822.63 581.48 831.02 652.93 902.48 581.48 973.93 589.87 982.33 669.72 902.48"/><polygon class="cls-3" points="630.47 902.48 570.24 842.25 561.85 850.65 613.68 902.48 561.85 954.31 570.24 962.7 630.47 902.48"/><path class="cls-3" d="M592.36,902.48l-41.17-41.17L510,902.48l41.17,41.16Zm-41.17-24.39,24.38,24.39-24.38,24.38-24.38-24.38Z"/><polygon class="cls-3" points="799.2 993.27 708.4 902.48 799.2 811.68 790.8 803.29 700.01 894.09 609.21 803.29 600.82 811.68 691.62 902.48 600.82 993.27 609.21 1001.67 700.01 910.87 790.8 1001.67 799.2 993.27"/><polygon class="cls-3" points="818.54 973.93 747.08 902.48 818.54 831.02 810.14 822.63 730.29 902.48 810.14 982.33 818.54 973.93"/><polygon class="cls-3" points="838.16 954.31 786.33 902.48 838.16 850.65 829.77 842.26 769.55 902.48 829.77 962.7 838.16 954.31"/><path class="cls-3" d="M890,902.48l-41.16-41.17-41.17,41.17,41.17,41.16Zm-41.16-24.39,24.38,24.39-24.38,24.38-24.39-24.38Z"/><polygon class="cls-3" points="779.86 1012.62 700.01 932.77 620.16 1012.62 628.55 1021.01 700.01 949.55 771.47 1021.01 779.86 1012.62"/><polygon class="cls-3" points="639.78 1032.24 648.18 1040.63 700.01 988.8 751.84 1040.63 760.23 1032.24 700.01 972.02 639.78 1032.24"/><path class="cls-3" d="M658.84,1051.3l32.61,32.6h17.12l32.61-32.6L700,1010.13Zm41.34,24.21-.17-.17-.17.17-24.22-24.21L700,1026.91l24.38,24.39Z"/><polygon class="cls-3" points="565.93 811.85 475.14 721.05 475.14 721.05 565.93 630.26 557.54 621.86 466.75 712.66 375.95 621.86 367.56 630.26 458.35 721.05 458.35 721.05 367.56 811.85 375.95 820.24 466.75 729.45 557.54 820.24 565.93 811.85"/><polygon class="cls-3" points="585.28 792.51 513.82 721.05 513.82 721.05 585.28 649.6 576.88 641.2 497.03 721.05 497.04 721.05 576.88 800.9 585.28 792.51"/><polygon class="cls-3" points="604.9 772.88 553.07 721.05 553.07 721.05 604.9 669.22 596.51 660.83 536.29 721.05 536.29 721.05 596.51 781.27 604.9 772.88"/><path class="cls-3" d="M656.73,721.05l-41.16-41.16L574.4,721.05l41.17,41.17Zm-41.16-24.38L640,721.05l-24.38,24.39-24.39-24.39Z"/><polygon class="cls-3" points="546.6 831.19 466.75 751.34 386.9 831.19 395.29 839.58 466.75 768.13 538.2 839.58 546.6 831.19"/><polygon class="cls-3" points="526.97 850.82 466.75 790.59 406.52 850.82 414.92 859.21 466.75 807.38 518.58 859.21 526.97 850.82"/><polygon class="cls-3" points="414.92 945.75 406.52 954.14 466.75 1014.36 526.97 954.14 518.58 945.75 466.75 997.58 414.92 945.75"/><polygon class="cls-3" points="348.22 1012.45 419.67 1083.9 419.67 1083.9 436.46 1083.9 436.46 1083.9 356.61 1004.05 348.22 1012.45"/><polygon class="cls-3" points="328.59 1032.08 380.42 1083.9 380.42 1083.9 397.2 1083.9 397.21 1083.9 336.98 1023.68 328.59 1032.08"/><polygon class="cls-3" points="276.76 1083.9 293.54 1083.9 317.93 1059.52 342.31 1083.9 359.1 1083.9 317.93 1042.73 276.76 1083.9"/><polygon class="cls-3" points="71.68 965.37 0.22 1036.83 0.22 1053.62 80.07 973.76 71.68 965.37"/><polygon class="cls-3" points="60.45 954.14 52.05 945.75 0.22 997.58 0.22 997.58 0.22 1014.36 0.22 1014.36 60.45 954.14"/><polygon class="cls-3" points="8.78 902.48 41.39 869.87 0.22 828.7 0.22 845.49 24.61 869.87 0.39 894.09 0.22 893.92 0.22 894.25 0.22 910.7 0.22 911.04 0.39 910.87 24.61 935.08 0.22 959.47 0.22 976.25 41.39 935.08 8.78 902.48"/><polygon class="cls-3" points="99.41 993.11 91.02 984.71 0.22 1075.51 0.22 1083.9 8.62 1083.9 8.62 1083.9 99.41 993.11"/><polygon class="cls-3" points="118.75 1012.45 110.36 1004.05 30.51 1083.9 30.51 1083.9 47.3 1083.9 47.3 1083.9 118.75 1012.45"/><polygon class="cls-3" points="138.38 1032.07 129.99 1023.68 69.77 1083.9 69.77 1083.9 86.55 1083.9 86.55 1083.9 138.38 1032.07"/><polygon class="cls-3" points="107.87 1083.9 124.66 1083.9 149.04 1059.52 173.43 1083.9 190.21 1083.9 149.04 1042.73 107.87 1083.9"/><polygon class="cls-3" points="436.46 721.05 436.46 721.05 436.46 721.05 356.61 641.2 348.22 649.6 419.67 721.05 419.67 721.05 419.67 721.05 348.22 792.51 356.61 800.9 436.46 721.05"/><polygon class="cls-3" points="397.2 721.05 397.21 721.05 336.98 660.83 328.59 669.23 380.42 721.05 380.42 721.05 328.59 772.88 336.98 781.27 397.2 721.05"/><path class="cls-3" d="M359.1,721.05l-41.17-41.16-41.17,41.16,41.17,41.17Zm-41.17-24.38,24.38,24.38-24.38,24.39-24.39-24.39Z"/><polygon class="cls-3" points="313.33 792.34 304.94 783.95 233.49 855.4 162.03 783.95 153.63 792.34 233.49 872.19 313.33 792.34"/><polygon class="cls-3" points="181.65 764.32 173.26 772.72 233.49 832.94 293.71 772.72 285.31 764.32 233.49 816.15 181.65 764.32"/><polygon class="cls-3" points="203.2 902.48 123.35 822.63 114.95 831.02 186.41 902.48 114.95 973.93 123.35 982.33 203.2 902.48"/><polygon class="cls-3" points="163.94 902.48 103.72 842.25 95.33 850.65 147.16 902.48 95.33 954.31 103.72 962.7 163.94 902.48"/><path class="cls-3" d="M43.5,902.48l41.17,41.16,41.16-41.16L84.67,861.31Zm41.17,24.38L60.28,902.48l24.39-24.39,24.38,24.39Z"/><polygon class="cls-3" points="332.67 993.27 241.88 902.48 332.67 811.68 324.28 803.29 233.48 894.09 142.69 803.29 134.3 811.68 225.09 902.48 134.3 993.27 142.69 1001.67 233.48 910.87 324.28 1001.67 332.67 993.27"/><polygon class="cls-3" points="352.01 973.93 280.56 902.48 352.01 831.02 343.62 822.63 263.77 902.48 343.62 982.33 352.01 973.93"/><polygon class="cls-3" points="371.64 954.31 319.81 902.48 371.64 850.65 363.25 842.26 303.03 902.48 363.25 962.7 371.64 954.31"/><path class="cls-3" d="M423.47,902.48,382.3,861.31l-41.17,41.17,41.17,41.16ZM382.3,878.09l24.39,24.39L382.3,926.86l-24.38-24.38Z"/><polygon class="cls-3" points="313.33 1012.62 233.49 932.77 153.63 1012.62 162.03 1021.01 233.49 949.55 304.94 1021.01 313.33 1012.62"/><polygon class="cls-3" points="173.26 1032.24 181.65 1040.63 233.49 988.8 285.31 1040.63 293.71 1032.24 233.49 972.02 173.26 1032.24"/><path class="cls-3" d="M192.32,1051.3l32.6,32.6h17.13l32.6-32.6-41.17-41.17Zm41.33,24.21-.17-.17-.16.17L209.1,1051.3l24.38-24.39,24.39,24.39Z"/><polygon class="cls-3" points="99.41 811.85 8.62 721.05 8.62 721.05 99.41 630.26 91.02 621.86 0.22 712.66 0.22 721.05 0.22 729.45 91.02 820.24 99.41 811.85"/><path class="cls-3" d="M190.21,721.05,149,679.89l-41.17,41.16L149,762.22ZM149,696.67l24.39,24.38L149,745.44l-24.38-24.39Z"/><polygon class="cls-3" points="80.07 831.19 0.22 751.34 0.22 768.13 71.68 839.58 80.07 831.19"/><polygon class="cls-3" points="52.05 859.21 60.45 850.82 0.22 790.59 0.22 790.59 0.22 807.38 0.22 807.38 52.05 859.21"/><polygon class="cls-3" points="963.56 358.2 963.56 358.2 1043.41 438.05 1051.8 429.66 980.34 358.2 980.34 358.2 1051.8 286.74 1043.41 278.35 963.56 358.2"/><polygon class="cls-3" points="1002.81 358.2 1002.81 358.2 1063.03 418.42 1071.42 410.03 1019.6 358.2 1019.6 358.2 1071.42 306.37 1063.03 297.98 1002.81 358.2"/><path class="cls-3" d="M1040.92,358.2l41.17,41.17,41.17-41.17L1082.09,317Zm41.17,24.38L1057.7,358.2l24.39-24.38,24.38,24.38Z"/><polygon class="cls-3" points="1048 105.32 1119.46 176.78 1048 248.23 1056.39 256.63 1136.24 176.78 1056.39 96.93 1048 105.32"/><polygon class="cls-3" points="1028.37 124.95 1080.2 176.78 1028.37 228.6 1036.77 237 1096.99 176.78 1036.77 116.55 1028.37 124.95"/><path class="cls-3" d="M976.54,176.78l41.17,41.16,41.17-41.16-41.17-41.17Zm41.17,24.38-24.38-24.38,24.38-24.39,24.39,24.39Z"/><polygon class="cls-3" points="1067.34 85.98 1158.14 176.78 1067.34 267.57 1075.73 275.96 1166.53 185.17 1257.33 275.96 1265.72 267.57 1174.92 176.78 1265.72 85.98 1257.33 77.59 1166.53 168.38 1075.73 77.59 1067.34 85.98"/><polygon class="cls-3" points="1051.8 66.81 980.34 -4.65 963.56 -4.65 1043.41 75.2 1051.8 66.81"/><polygon class="cls-3" points="1071.42 47.18 1019.6 -4.65 1002.81 -4.65 1063.03 55.57 1071.42 47.18"/><polygon class="cls-3" points="1123.26 -4.65 1106.47 -4.65 1082.09 19.73 1057.7 -4.65 1040.92 -4.65 1082.09 36.52 1123.26 -4.65"/><polygon class="cls-3" points="993.49 125.11 933.27 64.89 873.05 125.11 881.44 133.51 933.27 81.68 985.1 133.51 993.49 125.11"/><polygon class="cls-3" points="853.42 248.06 933.27 327.91 1013.12 248.06 1004.73 239.67 933.27 311.13 861.81 239.67 853.42 248.06"/><polygon class="cls-3" points="873.05 228.44 933.27 288.66 993.49 228.44 985.1 220.05 933.27 271.88 881.44 220.05 873.05 228.44"/><polygon class="cls-3" points="814.74 286.74 886.2 358.2 886.2 358.2 814.74 429.66 823.13 438.05 902.98 358.2 902.98 358.2 902.98 358.2 823.13 278.35 814.74 286.74"/><polygon class="cls-3" points="795.11 306.37 846.94 358.2 846.94 358.2 795.11 410.03 803.5 418.42 863.73 358.2 863.73 358.2 803.5 297.98 795.11 306.37"/><path class="cls-3" d="M743.28,358.2l41.17,41.17,41.17-41.17L784.45,317Zm41.17,24.38L760.07,358.2l24.38-24.38,24.38,24.38Z"/><polygon class="cls-3" points="834.08 267.4 924.88 358.2 924.88 358.2 834.08 449 842.47 457.39 933.27 366.59 933.27 366.59 1024.07 457.39 1032.46 449 941.66 358.2 941.66 358.2 1032.46 267.4 1024.07 259.01 933.27 349.81 933.27 349.81 842.47 259.01 834.08 267.4"/><polygon class="cls-3" points="497.03 358.2 497.04 358.2 576.88 438.05 585.28 429.66 513.82 358.2 513.82 358.2 585.28 286.74 576.88 278.35 497.03 358.2"/><polygon class="cls-3" points="536.29 358.2 536.29 358.2 596.51 418.42 604.9 410.03 553.07 358.2 553.07 358.2 604.9 306.37 596.51 297.98 536.29 358.2"/><path class="cls-3" d="M574.4,358.2l41.17,41.17,41.16-41.17L615.57,317Zm41.17,24.38L591.18,358.2l24.39-24.38L640,358.2Z"/><polygon class="cls-3" points="823.13 75.2 902.98 -4.65 886.2 -4.65 814.74 66.81 823.13 75.2"/><polygon class="cls-3" points="803.5 55.57 863.73 -4.65 846.94 -4.65 795.11 47.18 803.5 55.57"/><polygon class="cls-3" points="825.62 -4.65 808.84 -4.65 784.45 19.73 760.07 -4.65 743.28 -4.65 784.45 36.52 825.62 -4.65"/><polygon class="cls-3" points="842.47 94.54 933.27 3.74 933.27 3.74 1024.07 94.54 1032.46 86.15 941.66 -4.65 933.27 -4.65 924.88 -4.65 834.08 86.15 842.47 94.54"/><polygon class="cls-3" points="853.42 105.49 861.81 113.88 933.27 42.42 1004.73 113.88 1013.12 105.49 933.27 25.64 853.42 105.49"/><path class="cls-3" d="M892.1,209.38l41.17,41.17,41.17-41.17-32.61-32.6,32.61-32.61L933.27,103,892.1,144.17l32.61,32.61Zm65.55,0-24.38,24.39-24.38-24.39,24.21-24.21.17.17.17-.17Zm-48.76-65.21,24.38-24.39,24.38,24.39-24.21,24.21-.17-.17-.17.17Z"/><polygon class="cls-3" points="620.16 66.64 700.01 146.49 779.86 66.64 771.47 58.25 700.01 129.7 628.55 58.25 620.16 66.64"/><polygon class="cls-3" points="760.23 47.01 751.84 38.62 700.01 90.45 648.18 38.62 639.78 47.01 700.01 107.23 760.23 47.01"/><path class="cls-3" d="M741.18,28,708.57-4.65H691.45L658.84,28,700,69.13ZM699.84,3.74l.17.17.17-.17L724.39,28,700,52.34,675.62,28Z"/><polygon class="cls-3" points="581.48 105.32 652.93 176.78 581.48 248.23 589.87 256.63 669.72 176.78 589.87 96.93 581.48 105.32"/><polygon class="cls-3" points="561.85 124.95 613.68 176.78 561.85 228.6 570.24 237 630.47 176.78 570.24 116.55 561.85 124.95"/><path class="cls-3" d="M510,176.78l41.17,41.16,41.17-41.16-41.17-41.17Zm41.17,24.38-24.38-24.38,24.38-24.39,24.38,24.39Z"/><polygon class="cls-3" points="600.82 85.98 691.62 176.78 600.82 267.57 609.21 275.96 700.01 185.17 790.8 275.96 799.2 267.57 708.4 176.78 799.2 85.98 790.8 77.59 700.01 168.38 609.21 77.59 600.82 85.98"/><polygon class="cls-3" points="730.29 176.78 810.14 256.63 818.54 248.23 747.08 176.78 818.54 105.32 810.14 96.93 730.29 176.78"/><polygon class="cls-3" points="769.55 176.78 829.77 237 838.16 228.6 786.33 176.78 838.16 124.94 829.77 116.55 769.55 176.78"/><path class="cls-3" d="M807.66,176.78l41.17,41.16L890,176.78l-41.16-41.17Zm41.17,24.38-24.39-24.38,24.39-24.39,24.38,24.39Z"/><polygon class="cls-3" points="620.16 286.91 628.55 295.31 700.01 223.85 771.47 295.31 779.86 286.91 700.01 207.06 620.16 286.91"/><polygon class="cls-3" points="751.84 314.93 760.23 306.54 700.01 246.32 639.78 306.54 648.18 314.93 700.01 263.1 751.84 314.93"/><polygon class="cls-3" points="585.28 66.81 513.82 -4.65 497.04 -4.65 576.88 75.2 585.28 66.81"/><polygon class="cls-3" points="604.9 47.18 553.07 -4.65 536.29 -4.65 596.51 55.57 604.9 47.18"/><polygon class="cls-3" points="656.73 -4.65 639.95 -4.65 615.57 19.73 591.18 -4.65 574.4 -4.65 615.57 36.52 656.73 -4.65"/><polygon class="cls-3" points="526.97 125.11 466.75 64.89 406.52 125.11 414.92 133.51 466.75 81.68 518.58 133.51 526.97 125.11"/><polygon class="cls-3" points="386.9 248.06 466.75 327.91 546.6 248.06 538.2 239.67 466.75 311.13 395.29 239.67 386.9 248.06"/><polygon class="cls-3" points="406.52 228.44 466.75 288.66 526.97 228.44 518.58 220.05 466.75 271.88 414.92 220.05 406.52 228.44"/><polygon class="cls-3" points="348.22 286.74 419.67 358.2 419.67 358.2 419.67 358.2 348.22 429.66 356.61 438.05 436.46 358.2 436.46 358.2 436.46 358.2 356.61 278.35 348.22 286.74"/><polygon class="cls-3" points="328.59 306.37 380.42 358.2 380.42 358.2 328.59 410.03 336.98 418.42 397.2 358.2 397.21 358.2 336.98 297.98 328.59 306.37"/><path class="cls-3" d="M276.76,358.2l41.17,41.17L359.1,358.2,317.93,317Zm41.17,24.38L293.54,358.2l24.39-24.38,24.38,24.38Z"/><polygon class="cls-3" points="367.56 267.4 458.35 358.2 458.35 358.2 367.56 449 375.95 457.39 466.75 366.59 466.75 366.59 557.54 457.39 565.93 449 475.14 358.2 475.14 358.2 565.93 267.4 557.54 259.01 466.75 349.81 466.75 349.81 375.95 259.01 367.56 267.4"/><polygon class="cls-3" points="71.68 239.67 0.22 311.13 0.22 327.91 80.07 248.06 71.68 239.67"/><polygon class="cls-3" points="60.45 228.44 52.05 220.05 0.22 271.88 0.22 271.88 0.22 288.66 0.22 288.66 60.45 228.44"/><polygon class="cls-3" points="8.78 176.78 41.39 144.17 0.22 103 0.22 119.78 24.61 144.17 0.39 168.38 0.22 168.22 0.22 168.55 0.22 185 0.22 185.34 0.39 185.17 24.61 209.38 0.22 233.77 0.22 250.55 41.39 209.38 8.78 176.78"/><polygon class="cls-3" points="30.51 358.2 110.36 438.05 118.75 429.66 47.3 358.2 47.3 358.2 118.75 286.74 110.36 278.35 30.51 358.2 30.51 358.2"/><polygon class="cls-3" points="69.77 358.2 69.77 358.2 129.99 418.42 138.38 410.03 86.55 358.2 86.55 358.2 138.38 306.37 129.99 297.98 69.77 358.2"/><path class="cls-3" d="M107.87,358.2,149,399.37l41.17-41.17L149,317ZM149,382.58,124.66,358.2,149,333.82l24.39,24.38Z"/><polygon class="cls-3" points="356.61 75.2 436.46 -4.65 419.67 -4.65 348.22 66.81 356.61 75.2"/><polygon class="cls-3" points="336.98 55.57 397.2 -4.65 380.42 -4.65 328.59 47.18 336.98 55.57"/><polygon class="cls-3" points="359.1 -4.65 342.31 -4.65 317.93 19.73 293.54 -4.65 276.76 -4.65 317.93 36.52 359.1 -4.65"/><polygon class="cls-3" points="375.95 94.54 466.75 3.74 466.75 3.74 557.54 94.54 565.93 86.15 475.14 -4.65 466.75 -4.65 458.35 -4.65 367.56 86.15 375.95 94.54"/><polygon class="cls-3" points="386.9 105.49 395.29 113.88 466.75 42.42 538.2 113.88 546.6 105.49 466.75 25.64 386.9 105.49"/><path class="cls-3" d="M425.58,209.38l41.17,41.17,41.16-41.17-32.6-32.6,32.61-32.61L466.75,103l-41.17,41.17,32.6,32.61Zm65.55,0-24.38,24.39-24.39-24.39,24.22-24.21.17.17.16-.17Zm-48.77-65.21,24.39-24.39,24.38,24.39-24.22,24.21-.16-.17-.17.17Z"/><polygon class="cls-3" points="153.63 66.64 233.49 146.49 313.33 66.64 304.94 58.25 233.49 129.7 162.03 58.25 153.63 66.64"/><polygon class="cls-3" points="293.71 47.01 285.31 38.62 233.49 90.45 181.65 38.62 173.26 47.01 233.49 107.23 293.71 47.01"/><path class="cls-3" d="M274.65,28,242.05-4.65H224.92L192.32,28l41.16,41.17ZM233.32,3.74l.16.17.17-.17L257.87,28,233.48,52.34,209.1,28Z"/><polygon class="cls-3" points="114.95 105.32 186.41 176.78 114.95 248.23 123.35 256.63 203.2 176.78 123.35 96.93 114.95 105.32"/><polygon class="cls-3" points="163.94 176.78 103.72 116.55 95.33 124.95 147.16 176.78 95.33 228.6 103.72 237 163.94 176.78"/><path class="cls-3" d="M43.5,176.78l41.17,41.16,41.16-41.16L84.67,135.61Zm41.17,24.38L60.28,176.78l24.39-24.39,24.38,24.39Z"/><polygon class="cls-3" points="134.3 85.98 225.09 176.78 134.3 267.57 142.69 275.96 233.48 185.17 324.28 275.96 332.67 267.57 241.88 176.78 332.67 85.98 324.28 77.59 233.48 168.38 142.69 77.59 134.3 85.98"/><polygon class="cls-3" points="263.77 176.78 343.62 256.63 352.01 248.23 280.56 176.78 352.01 105.32 343.62 96.93 263.77 176.78"/><polygon class="cls-3" points="303.03 176.78 363.25 237 371.64 228.6 319.81 176.78 371.64 124.94 363.25 116.55 303.03 176.78"/><path class="cls-3" d="M341.13,176.78l41.17,41.16,41.17-41.16L382.3,135.61Zm41.17,24.38-24.38-24.38,24.38-24.39,24.39,24.39Z"/><polygon class="cls-3" points="153.63 286.91 162.03 295.31 233.49 223.85 304.94 295.31 313.33 286.91 233.49 207.06 153.63 286.91"/><polygon class="cls-3" points="285.31 314.93 293.71 306.54 233.49 246.32 173.26 306.54 181.65 314.93 233.49 263.1 285.31 314.93"/><path class="cls-3" d="M224.92,358.2l-32.6,32.61L233.48,432l41.17-41.17-32.6-32.61,32.6-32.6-41.17-41.17L192.32,325.6l32.6,32.6Zm33,32.61-24.39,24.38L209.1,390.81l24.22-24.22.16.17.17-.17Zm-24.39-89.6,24.39,24.39-24.22,24.21-.17-.17-.16.17L209.1,325.6Z"/><polygon class="cls-3" points="99.41 86.15 8.62 -4.65 0.22 -4.65 0.22 3.74 91.02 94.54 99.41 86.15"/><polygon class="cls-3" points="118.75 66.81 47.3 -4.65 30.51 -4.65 110.36 75.2 118.75 66.81"/><polygon class="cls-3" points="138.38 47.18 86.55 -4.65 69.77 -4.65 129.99 55.57 138.38 47.18"/><polygon class="cls-3" points="190.21 -4.65 173.43 -4.65 149.04 19.73 124.66 -4.65 107.87 -4.65 149.04 36.52 190.21 -4.65"/><polygon class="cls-3" points="80.07 105.49 0.22 25.64 0.22 42.42 71.68 113.88 80.07 105.49"/><polygon class="cls-3" points="52.05 133.51 60.45 125.11 0.22 64.89 0.22 64.89 0.22 81.68 0.22 81.68 52.05 133.51"/></g></svg>